<?xml version="1.0" encoding="utf-8" standalone="no"?>
<!DOCTYPE svg PUBLIC "-//W3C//DTD SVG 1.1//EN"
  "http://www.w3.org/Graphics/SVG/1.1/DTD/svg11.dtd">
<!-- Created with matplotlib (https://matplotlib.org/) -->
<svg height="297.190125pt" version="1.1" viewBox="0 0 399.624687 297.190125" width="399.624687pt" xmlns="http://www.w3.org/2000/svg" xmlns:xlink="http://www.w3.org/1999/xlink">
 <defs>
  <style type="text/css">
*{stroke-linecap:butt;stroke-linejoin:round;}
  </style>
 </defs>
 <g id="figure_1">
  <g id="patch_1">
   <path d="M 0 297.190125 
L 399.624687 297.190125 
L 399.624687 0 
L 0 0 
z
" style="fill:#ffffff;"/>
  </g>
  <g id="axes_1">
   <g id="patch_2">
    <path d="M 35.304688 273.312 
L 392.424688 273.312 
L 392.424688 7.2 
L 35.304688 7.2 
z
" style="fill:#ffffff;"/>
   </g>
   <g id="patch_3">
    <path clip-path="url(#p7022f3b785)" d="M 102.822335 141.681019 
C 113.727636 141.681019 124.187753 137.348297 131.898966 129.637084 
C 139.610179 121.925871 143.942901 111.465754 143.942901 100.560453 
C 143.942901 89.655151 139.610179 79.195034 131.898966 71.483822 
C 124.187753 63.772609 113.727636 59.439887 102.822335 59.439887 
C 91.917033 59.439887 81.456916 63.772609 73.745704 71.483822 
C 66.034491 79.195034 61.701769 89.655151 61.701769 100.560453 
C 61.701769 111.465754 66.034491 121.925871 73.745704 129.637084 
C 81.456916 137.348297 91.917033 141.681019 102.822335 141.681019 
z
" style="fill:none;stroke:#000000;stroke-linejoin:miter;"/>
   </g>
   <g id="patch_4">
    <path clip-path="url(#p7022f3b785)" d="M 253.910808 155.211248 
C 264.81611 155.211248 275.276226 150.878525 282.987439 143.167313 
C 290.698652 135.4561 295.031374 124.995983 295.031374 114.090682 
C 295.031374 103.18538 290.698652 92.725263 282.987439 85.014051 
C 275.276226 77.302838 264.81611 72.970116 253.910808 72.970116 
C 243.005506 72.970116 232.54539 77.302838 224.834177 85.014051 
C 217.122964 92.725263 212.790242 103.18538 212.790242 114.090682 
C 212.790242 124.995983 217.122964 135.4561 224.834177 143.167313 
C 232.54539 150.878525 243.005506 155.211248 253.910808 155.211248 
z
" style="fill:none;stroke:#000000;stroke-linejoin:miter;"/>
   </g>
   <g id="patch_5">
    <path clip-path="url(#p7022f3b785)" d="M 255.40883 292.804033 
C 266.314132 292.804033 276.774249 288.471311 284.485461 280.760098 
C 292.196674 273.048886 296.529396 262.588769 296.529396 251.683467 
C 296.529396 240.778166 292.196674 230.318049 284.485461 222.606836 
C 276.774249 214.895624 266.314132 210.562901 255.40883 210.562901 
C 244.503529 210.562901 234.043412 214.895624 226.332199 222.606836 
C 218.620987 230.318049 214.288264 240.778166 214.288264 251.683467 
C 214.288264 262.588769 218.620987 273.048886 226.332199 280.760098 
C 234.043412 288.471311 244.503529 292.804033 255.40883 292.804033 
z
" style="fill:none;stroke:#000000;stroke-linejoin:miter;"/>
   </g>
   <g id="patch_6">
    <path clip-path="url(#p7022f3b785)" d="M 91.928674 321.1213 
C 102.833976 321.1213 113.294093 316.788578 121.005305 309.077365 
C 128.716518 301.366152 133.04924 290.906036 133.04924 280.000734 
C 133.04924 269.095432 128.716518 258.635316 121.005305 250.924103 
C 113.294093 243.21289 102.833976 238.880168 91.928674 238.880168 
C 81.023373 238.880168 70.563256 243.21289 62.852043 250.924103 
C 55.140831 258.635316 50.808108 269.095432 50.808108 280.000734 
C 50.808108 290.906036 55.140831 301.366152 62.852043 309.077365 
C 70.563256 316.788578 81.023373 321.1213 91.928674 321.1213 
z
" style="fill:none;stroke:#000000;stroke-linejoin:miter;"/>
   </g>
   <g id="patch_7">
    <path clip-path="url(#p7022f3b785)" d="M 279.64118 42.122783 
C 290.546481 42.122783 301.006598 37.790061 308.717811 30.078848 
C 316.429024 22.367635 320.761746 11.907518 320.761746 1.002217 
C 320.761746 -9.903085 316.429024 -20.363202 308.717811 -28.074414 
C 301.006598 -35.785627 290.546481 -40.118349 279.64118 -40.118349 
C 268.735878 -40.118349 258.275761 -35.785627 250.564549 -28.074414 
C 242.853336 -20.363202 238.520614 -9.903085 238.520614 1.002217 
C 238.520614 11.907518 242.853336 22.367635 250.564549 30.078848 
C 258.275761 37.790061 268.735878 42.122783 279.64118 42.122783 
z
" style="fill:none;stroke:#000000;stroke-linejoin:miter;"/>
   </g>
   <g id="patch_8">
    <path clip-path="url(#p7022f3b785)" d="M 47.277497 226.695404 
C 58.182798 226.695404 68.642915 222.362682 76.354128 214.651469 
C 84.06534 206.940256 88.398063 196.48014 88.398063 185.574838 
C 88.398063 174.669536 84.06534 164.20942 76.354128 156.498207 
C 68.642915 148.786994 58.182798 144.454272 47.277497 144.454272 
C 36.372195 144.454272 25.912078 148.786994 18.200866 156.498207 
C 10.489653 164.20942 6.156931 174.669536 6.156931 185.574838 
C 6.156931 196.48014 10.489653 206.940256 18.200866 214.651469 
C 25.912078 222.362682 36.372195 226.695404 47.277497 226.695404 
z
" style="fill:none;stroke:#000000;stroke-linejoin:miter;"/>
   </g>
   <g id="patch_9">
    <path clip-path="url(#p7022f3b785)" d="M 367.292134 36.76724 
C 378.197435 36.76724 388.657552 32.434518 396.368765 24.723305 
C 404.079977 17.012093 408.4127 6.551976 408.4127 -4.353326 
C 408.4127 -15.258627 404.079977 -25.718744 396.368765 -33.429957 
C 388.657552 -41.14117 378.197435 -45.473892 367.292134 -45.473892 
C 356.386832 -45.473892 345.926715 -41.14117 338.215502 -33.429957 
C 330.50429 -25.718744 326.171568 -15.258627 326.171568 -4.353326 
C 326.171568 6.551976 330.50429 17.012093 338.215502 24.723305 
C 345.926715 32.434518 356.386832 36.76724 367.292134 36.76724 
z
" style="fill:none;stroke:#000000;stroke-linejoin:miter;"/>
   </g>
   <g id="patch_10">
    <path clip-path="url(#p7022f3b785)" d="M 338.467028 300.049888 
C 349.37233 300.049888 359.832446 295.717166 367.543659 288.005953 
C 375.254872 280.294741 379.587594 269.834624 379.587594 258.929322 
C 379.587594 248.024021 375.254872 237.563904 367.543659 229.852691 
C 359.832446 222.141479 349.37233 217.808756 338.467028 217.808756 
C 327.561726 217.808756 317.10161 222.141479 309.390397 229.852691 
C 301.679184 237.563904 297.346462 248.024021 297.346462 258.929322 
C 297.346462 269.834624 301.679184 280.294741 309.390397 288.005953 
C 317.10161 295.717166 327.561726 300.049888 338.467028 300.049888 
z
" style="fill:none;stroke:#000000;stroke-linejoin:miter;"/>
   </g>
   <g id="patch_11">
    <path clip-path="url(#p7022f3b785)" d="M 342.970964 215.374789 
C 353.876265 215.374789 364.336382 211.042067 372.047595 203.330854 
C 379.758807 195.619641 384.09153 185.159524 384.09153 174.254223 
C 384.09153 163.348921 379.758807 152.888804 372.047595 145.177592 
C 364.336382 137.466379 353.876265 133.133657 342.970964 133.133657 
C 332.065662 133.133657 321.605545 137.466379 313.894333 145.177592 
C 306.18312 152.888804 301.850398 163.348921 301.850398 174.254223 
C 301.850398 185.159524 306.18312 195.619641 313.894333 203.330854 
C 321.605545 211.042067 332.065662 215.374789 342.970964 215.374789 
z
" style="fill:none;stroke:#000000;stroke-linejoin:miter;"/>
   </g>
   <g id="patch_12">
    <path clip-path="url(#p7022f3b785)" d="M 183.272707 111.454113 
C 194.178009 111.454113 204.638126 107.121391 212.349338 99.410178 
C 220.060551 91.698966 224.393273 81.238849 224.393273 70.333547 
C 224.393273 59.428246 220.060551 48.968129 212.349338 41.256916 
C 204.638126 33.545703 194.178009 29.212981 183.272707 29.212981 
C 172.367406 29.212981 161.907289 33.545703 154.196076 41.256916 
C 146.484863 48.968129 142.152141 59.428246 142.152141 70.333547 
C 142.152141 81.238849 146.484863 91.698966 154.196076 99.410178 
C 161.907289 107.121391 172.367406 111.454113 183.272707 111.454113 
z
" style="fill:none;stroke:#000000;stroke-linejoin:miter;"/>
   </g>
   <g id="patch_13">
    <path clip-path="url(#p7022f3b785)" d="M 75.987053 55.66214 
C 86.892355 55.66214 97.352472 51.329418 105.063684 43.618205 
C 112.774897 35.906993 117.107619 25.446876 117.107619 14.541574 
C 117.107619 3.636273 112.774897 -6.823844 105.063684 -14.535057 
C 97.352472 -22.246269 86.892355 -26.578992 75.987053 -26.578992 
C 65.081752 -26.578992 54.621635 -22.246269 46.910422 -14.535057 
C 39.19921 -6.823844 34.866487 3.636273 34.866487 14.541574 
C 34.866487 25.446876 39.19921 35.906993 46.910422 43.618205 
C 54.621635 51.329418 65.081752 55.66214 75.987053 55.66214 
z
" style="fill:none;stroke:#000000;stroke-linejoin:miter;"/>
   </g>
   <g id="patch_14">
    <path clip-path="url(#p7022f3b785)" d="M 170.754373 207.495389 
C 181.659675 207.495389 192.119792 203.162667 199.831004 195.451454 
C 207.542217 187.740242 211.874939 177.280125 211.874939 166.374823 
C 211.874939 155.469522 207.542217 145.009405 199.831004 137.298192 
C 192.119792 129.58698 181.659675 125.254257 170.754373 125.254257 
C 159.849072 125.254257 149.388955 129.58698 141.677742 137.298192 
C 133.96653 145.009405 129.633807 155.469522 129.633807 166.374823 
C 129.633807 177.280125 133.96653 187.740242 141.677742 195.451454 
C 149.388955 203.162667 159.849072 207.495389 170.754373 207.495389 
z
" style="fill:none;stroke:#000000;stroke-linejoin:miter;"/>
   </g>
   <g id="patch_15">
    <path clip-path="url(#p7022f3b785)" d="M 174.20883 321.891077 
C 185.114131 321.891077 195.574248 317.558355 203.285461 309.847142 
C 210.996674 302.135929 215.329396 291.675813 215.329396 280.770511 
C 215.329396 269.865209 210.996674 259.405093 203.285461 251.69388 
C 195.574248 243.982667 185.114131 239.649945 174.20883 239.649945 
C 163.303528 239.649945 152.843411 243.982667 145.132199 251.69388 
C 137.420986 259.405093 133.088264 269.865209 133.088264 280.770511 
C 133.088264 291.675813 137.420986 302.135929 145.132199 309.847142 
C 152.843411 317.558355 163.303528 321.891077 174.20883 321.891077 
z
" style="fill:none;stroke:#000000;stroke-linejoin:miter;"/>
   </g>
   <g id="patch_16">
    <path clip-path="url(#p7022f3b785)" d="M 183.364941 25.599717 
C 194.270242 25.599717 204.730359 21.266995 212.441572 13.555782 
C 220.152784 5.844569 224.485507 -4.615547 224.485507 -15.520849 
C 224.485507 -26.426151 220.152784 -36.886267 212.441572 -44.59748 
C 204.730359 -52.308693 194.270242 -56.641415 183.364941 -56.641415 
C 172.459639 -56.641415 161.999522 -52.308693 154.28831 -44.59748 
C 146.577097 -36.886267 142.244375 -26.426151 142.244375 -15.520849 
C 142.244375 -4.615547 146.577097 5.844569 154.28831 13.555782 
C 161.999522 21.266995 172.459639 25.599717 183.364941 25.599717 
z
" style="fill:none;stroke:#000000;stroke-linejoin:miter;"/>
   </g>
   <g id="patch_17">
    <path clip-path="url(#p7022f3b785)" d="M 360.454195 129.073864 
C 371.359496 129.073864 381.819613 124.741142 389.530826 117.02993 
C 397.242038 109.318717 401.574761 98.8586 401.574761 87.953298 
C 401.574761 77.047997 397.242038 66.58788 389.530826 58.876667 
C 381.819613 51.165455 371.359496 46.832732 360.454195 46.832732 
C 349.548893 46.832732 339.088776 51.165455 331.377564 58.876667 
C 323.666351 66.58788 319.333629 77.047997 319.333629 87.953298 
C 319.333629 98.8586 323.666351 109.318717 331.377564 117.02993 
C 339.088776 124.741142 349.548893 129.073864 360.454195 129.073864 
z
" style="fill:none;stroke:#000000;stroke-linejoin:miter;"/>
   </g>
   <g id="matplotlib.axis_1">
    <g id="xtick_1">
     <g id="line2d_1">
      <defs>
       <path d="M 0 0 
L 0 3.5 
" id="m0f34fa8268" style="stroke:#000000;stroke-width:0.8;"/>
      </defs>
      <g>
       <use style="stroke:#000000;stroke-width:0.8;" x="40.443259" xlink:href="#m0f34fa8268" y="273.312"/>
      </g>
     </g>
     <g id="text_1">
      <!-- −40 -->
      <defs>
       <path d="M 10.59375 35.5 
L 73.1875 35.5 
L 73.1875 27.203125 
L 10.59375 27.203125 
z
" id="DejaVuSans-8722"/>
       <path d="M 37.796875 64.3125 
L 12.890625 25.390625 
L 37.796875 25.390625 
z
M 35.203125 72.90625 
L 47.609375 72.90625 
L 47.609375 25.390625 
L 58.015625 25.390625 
L 58.015625 17.1875 
L 47.609375 17.1875 
L 47.609375 0 
L 37.796875 0 
L 37.796875 17.1875 
L 4.890625 17.1875 
L 4.890625 26.703125 
z
" id="DejaVuSans-52"/>
       <path d="M 31.78125 66.40625 
Q 24.171875 66.40625 20.328125 58.90625 
Q 16.5 51.421875 16.5 36.375 
Q 16.5 21.390625 20.328125 13.890625 
Q 24.171875 6.390625 31.78125 6.390625 
Q 39.453125 6.390625 43.28125 13.890625 
Q 47.125 21.390625 47.125 36.375 
Q 47.125 51.421875 43.28125 58.90625 
Q 39.453125 66.40625 31.78125 66.40625 
z
M 31.78125 74.21875 
Q 44.046875 74.21875 50.515625 64.515625 
Q 56.984375 54.828125 56.984375 36.375 
Q 56.984375 17.96875 50.515625 8.265625 
Q 44.046875 -1.421875 31.78125 -1.421875 
Q 19.53125 -1.421875 13.0625 8.265625 
Q 6.59375 17.96875 6.59375 36.375 
Q 6.59375 54.828125 13.0625 64.515625 
Q 19.53125 74.21875 31.78125 74.21875 
z
" id="DejaVuSans-48"/>
      </defs>
      <g transform="translate(29.890915 287.910437)scale(0.1 -0.1)">
       <use xlink:href="#DejaVuSans-8722"/>
       <use x="83.789062" xlink:href="#DejaVuSans-52"/>
       <use x="147.412109" xlink:href="#DejaVuSans-48"/>
      </g>
     </g>
    </g>
    <g id="xtick_2">
     <g id="line2d_2">
      <g>
       <use style="stroke:#000000;stroke-width:0.8;" x="81.563825" xlink:href="#m0f34fa8268" y="273.312"/>
      </g>
     </g>
     <g id="text_2">
      <!-- −30 -->
      <defs>
       <path d="M 40.578125 39.3125 
Q 47.65625 37.796875 51.625 33 
Q 55.609375 28.21875 55.609375 21.1875 
Q 55.609375 10.40625 48.1875 4.484375 
Q 40.765625 -1.421875 27.09375 -1.421875 
Q 22.515625 -1.421875 17.65625 -0.515625 
Q 12.796875 0.390625 7.625 2.203125 
L 7.625 11.71875 
Q 11.71875 9.328125 16.59375 8.109375 
Q 21.484375 6.890625 26.8125 6.890625 
Q 36.078125 6.890625 40.9375 10.546875 
Q 45.796875 14.203125 45.796875 21.1875 
Q 45.796875 27.640625 41.28125 31.265625 
Q 36.765625 34.90625 28.71875 34.90625 
L 20.21875 34.90625 
L 20.21875 43.015625 
L 29.109375 43.015625 
Q 36.375 43.015625 40.234375 45.921875 
Q 44.09375 48.828125 44.09375 54.296875 
Q 44.09375 59.90625 40.109375 62.90625 
Q 36.140625 65.921875 28.71875 65.921875 
Q 24.65625 65.921875 20.015625 65.03125 
Q 15.375 64.15625 9.8125 62.3125 
L 9.8125 71.09375 
Q 15.4375 72.65625 20.34375 73.4375 
Q 25.25 74.21875 29.59375 74.21875 
Q 40.828125 74.21875 47.359375 69.109375 
Q 53.90625 64.015625 53.90625 55.328125 
Q 53.90625 49.265625 50.4375 45.09375 
Q 46.96875 40.921875 40.578125 39.3125 
z
" id="DejaVuSans-51"/>
      </defs>
      <g transform="translate(71.011481 287.910437)scale(0.1 -0.1)">
       <use xlink:href="#DejaVuSans-8722"/>
       <use x="83.789062" xlink:href="#DejaVuSans-51"/>
       <use x="147.412109" xlink:href="#DejaVuSans-48"/>
      </g>
     </g>
    </g>
    <g id="xtick_3">
     <g id="line2d_3">
      <g>
       <use style="stroke:#000000;stroke-width:0.8;" x="122.684391" xlink:href="#m0f34fa8268" y="273.312"/>
      </g>
     </g>
     <g id="text_3">
      <!-- −20 -->
      <defs>
       <path d="M 19.1875 8.296875 
L 53.609375 8.296875 
L 53.609375 0 
L 7.328125 0 
L 7.328125 8.296875 
Q 12.9375 14.109375 22.625 23.890625 
Q 32.328125 33.6875 34.8125 36.53125 
Q 39.546875 41.84375 41.421875 45.53125 
Q 43.3125 49.21875 43.3125 52.78125 
Q 43.3125 58.59375 39.234375 62.25 
Q 35.15625 65.921875 28.609375 65.921875 
Q 23.96875 65.921875 18.8125 64.3125 
Q 13.671875 62.703125 7.8125 59.421875 
L 7.8125 69.390625 
Q 13.765625 71.78125 18.9375 73 
Q 24.125 74.21875 28.421875 74.21875 
Q 39.75 74.21875 46.484375 68.546875 
Q 53.21875 62.890625 53.21875 53.421875 
Q 53.21875 48.921875 51.53125 44.890625 
Q 49.859375 40.875 45.40625 35.40625 
Q 44.1875 33.984375 37.640625 27.21875 
Q 31.109375 20.453125 19.1875 8.296875 
z
" id="DejaVuSans-50"/>
      </defs>
      <g transform="translate(112.132047 287.910437)scale(0.1 -0.1)">
       <use xlink:href="#DejaVuSans-8722"/>
       <use x="83.789062" xlink:href="#DejaVuSans-50"/>
       <use x="147.412109" xlink:href="#DejaVuSans-48"/>
      </g>
     </g>
    </g>
    <g id="xtick_4">
     <g id="line2d_4">
      <g>
       <use style="stroke:#000000;stroke-width:0.8;" x="163.804957" xlink:href="#m0f34fa8268" y="273.312"/>
      </g>
     </g>
     <g id="text_4">
      <!-- −10 -->
      <defs>
       <path d="M 12.40625 8.296875 
L 28.515625 8.296875 
L 28.515625 63.921875 
L 10.984375 60.40625 
L 10.984375 69.390625 
L 28.421875 72.90625 
L 38.28125 72.90625 
L 38.28125 8.296875 
L 54.390625 8.296875 
L 54.390625 0 
L 12.40625 0 
z
" id="DejaVuSans-49"/>
      </defs>
      <g transform="translate(153.252613 287.910437)scale(0.1 -0.1)">
       <use xlink:href="#DejaVuSans-8722"/>
       <use x="83.789062" xlink:href="#DejaVuSans-49"/>
       <use x="147.412109" xlink:href="#DejaVuSans-48"/>
      </g>
     </g>
    </g>
    <g id="xtick_5">
     <g id="line2d_5">
      <g>
       <use style="stroke:#000000;stroke-width:0.8;" x="204.925523" xlink:href="#m0f34fa8268" y="273.312"/>
      </g>
     </g>
     <g id="text_5">
      <!-- 0 -->
      <g transform="translate(201.744273 287.910437)scale(0.1 -0.1)">
       <use xlink:href="#DejaVuSans-48"/>
      </g>
     </g>
    </g>
    <g id="xtick_6">
     <g id="line2d_6">
      <g>
       <use style="stroke:#000000;stroke-width:0.8;" x="246.046089" xlink:href="#m0f34fa8268" y="273.312"/>
      </g>
     </g>
     <g id="text_6">
      <!-- 10 -->
      <g transform="translate(239.683589 287.910437)scale(0.1 -0.1)">
       <use xlink:href="#DejaVuSans-49"/>
       <use x="63.623047" xlink:href="#DejaVuSans-48"/>
      </g>
     </g>
    </g>
    <g id="xtick_7">
     <g id="line2d_7">
      <g>
       <use style="stroke:#000000;stroke-width:0.8;" x="287.166655" xlink:href="#m0f34fa8268" y="273.312"/>
      </g>
     </g>
     <g id="text_7">
      <!-- 20 -->
      <g transform="translate(280.804155 287.910437)scale(0.1 -0.1)">
       <use xlink:href="#DejaVuSans-50"/>
       <use x="63.623047" xlink:href="#DejaVuSans-48"/>
      </g>
     </g>
    </g>
    <g id="xtick_8">
     <g id="line2d_8">
      <g>
       <use style="stroke:#000000;stroke-width:0.8;" x="328.287221" xlink:href="#m0f34fa8268" y="273.312"/>
      </g>
     </g>
     <g id="text_8">
      <!-- 30 -->
      <g transform="translate(321.924721 287.910437)scale(0.1 -0.1)">
       <use xlink:href="#DejaVuSans-51"/>
       <use x="63.623047" xlink:href="#DejaVuSans-48"/>
      </g>
     </g>
    </g>
    <g id="xtick_9">
     <g id="line2d_9">
      <g>
       <use style="stroke:#000000;stroke-width:0.8;" x="369.407787" xlink:href="#m0f34fa8268" y="273.312"/>
      </g>
     </g>
     <g id="text_9">
      <!-- 40 -->
      <g transform="translate(363.045287 287.910437)scale(0.1 -0.1)">
       <use xlink:href="#DejaVuSans-52"/>
       <use x="63.623047" xlink:href="#DejaVuSans-48"/>
      </g>
     </g>
    </g>
   </g>
   <g id="matplotlib.axis_2">
    <g id="ytick_1">
     <g id="line2d_10">
      <defs>
       <path d="M 0 0 
L -3.5 0 
" id="ma7c981bf5a" style="stroke:#000000;stroke-width:0.8;"/>
      </defs>
      <g>
       <use style="stroke:#000000;stroke-width:0.8;" x="35.304688" xlink:href="#ma7c981bf5a" y="271.66724"/>
      </g>
     </g>
     <g id="text_10">
      <!-- −30 -->
      <g transform="translate(7.2 275.466459)scale(0.1 -0.1)">
       <use xlink:href="#DejaVuSans-8722"/>
       <use x="83.789062" xlink:href="#DejaVuSans-51"/>
       <use x="147.412109" xlink:href="#DejaVuSans-48"/>
      </g>
     </g>
    </g>
    <g id="ytick_2">
     <g id="line2d_11">
      <g>
       <use style="stroke:#000000;stroke-width:0.8;" x="35.304688" xlink:href="#ma7c981bf5a" y="230.546674"/>
      </g>
     </g>
     <g id="text_11">
      <!-- −20 -->
      <g transform="translate(7.2 234.345893)scale(0.1 -0.1)">
       <use xlink:href="#DejaVuSans-8722"/>
       <use x="83.789062" xlink:href="#DejaVuSans-50"/>
       <use x="147.412109" xlink:href="#DejaVuSans-48"/>
      </g>
     </g>
    </g>
    <g id="ytick_3">
     <g id="line2d_12">
      <g>
       <use style="stroke:#000000;stroke-width:0.8;" x="35.304688" xlink:href="#ma7c981bf5a" y="189.426108"/>
      </g>
     </g>
     <g id="text_12">
      <!-- −10 -->
      <g transform="translate(7.2 193.225327)scale(0.1 -0.1)">
       <use xlink:href="#DejaVuSans-8722"/>
       <use x="83.789062" xlink:href="#DejaVuSans-49"/>
       <use x="147.412109" xlink:href="#DejaVuSans-48"/>
      </g>
     </g>
    </g>
    <g id="ytick_4">
     <g id="line2d_13">
      <g>
       <use style="stroke:#000000;stroke-width:0.8;" x="35.304688" xlink:href="#ma7c981bf5a" y="148.305542"/>
      </g>
     </g>
     <g id="text_13">
      <!-- 0 -->
      <g transform="translate(21.942187 152.104761)scale(0.1 -0.1)">
       <use xlink:href="#DejaVuSans-48"/>
      </g>
     </g>
    </g>
    <g id="ytick_5">
     <g id="line2d_14">
      <g>
       <use style="stroke:#000000;stroke-width:0.8;" x="35.304688" xlink:href="#ma7c981bf5a" y="107.184976"/>
      </g>
     </g>
     <g id="text_14">
      <!-- 10 -->
      <g transform="translate(15.579687 110.984195)scale(0.1 -0.1)">
       <use xlink:href="#DejaVuSans-49"/>
       <use x="63.623047" xlink:href="#DejaVuSans-48"/>
      </g>
     </g>
    </g>
    <g id="ytick_6">
     <g id="line2d_15">
      <g>
       <use style="stroke:#000000;stroke-width:0.8;" x="35.304688" xlink:href="#ma7c981bf5a" y="66.06441"/>
      </g>
     </g>
     <g id="text_15">
      <!-- 20 -->
      <g transform="translate(15.579687 69.863629)scale(0.1 -0.1)">
       <use xlink:href="#DejaVuSans-50"/>
       <use x="63.623047" xlink:href="#DejaVuSans-48"/>
      </g>
     </g>
    </g>
    <g id="ytick_7">
     <g id="line2d_16">
      <g>
       <use style="stroke:#000000;stroke-width:0.8;" x="35.304688" xlink:href="#ma7c981bf5a" y="24.943844"/>
      </g>
     </g>
     <g id="text_16">
      <!-- 30 -->
      <g transform="translate(15.579687 28.743063)scale(0.1 -0.1)">
       <use xlink:href="#DejaVuSans-51"/>
       <use x="63.623047" xlink:href="#DejaVuSans-48"/>
      </g>
     </g>
    </g>
   </g>
   <g id="line2d_17">
    <path clip-path="url(#p7022f3b785)" d="M 204.925523 148.305542 
L 205.110948 146.883363 
L 232.503421 131.672906 
" style="fill:none;stroke:#1f77b4;stroke-linecap:square;stroke-width:1.5;"/>
    <defs>
     <path d="M -3 0 
L 3 0 
M 0 3 
L 0 -3 
" id="m22beec0f8b" style="stroke:#1f77b4;"/>
    </defs>
    <g clip-path="url(#p7022f3b785)">
     <use style="fill:#1f77b4;stroke:#1f77b4;" x="204.925523" xlink:href="#m22beec0f8b" y="148.305542"/>
     <use style="fill:#1f77b4;stroke:#1f77b4;" x="205.110948" xlink:href="#m22beec0f8b" y="146.883363"/>
     <use style="fill:#1f77b4;stroke:#1f77b4;" x="232.503421" xlink:href="#m22beec0f8b" y="131.672906"/>
    </g>
   </g>
   <g id="line2d_18">
    <path clip-path="url(#p7022f3b785)" d="M 204.925523 148.305542 
L 201.550791 144.254447 
L 187.819778 79.649424 
L 248.359589 109.415549 
L 262.725318 144.553048 
L 225.921552 131.690559 
L 289.22471 111.886097 
L 274.237189 109.007941 
L 272.71843 107.845381 
L 259.622541 86.855848 
L 263.697688 105.71668 
L 264.889991 107.183899 
L 275.181543 113.078717 
L 275.066899 114.426028 
L 260.372716 129.57864 
L 278.534387 145.335214 
L 318.112405 173.435044 
L 189.615242 138.366397 
L 137.807655 117.939447 
L 168.585235 136.347755 
L 129.613194 101.466672 
L 126.524903 98.361424 
L 132.830685 106.769366 
L 97.78384 250.383868 
L 163.448721 261.216 
L 128.833009 248.15337 
L 310.561029 155.970473 
L 266.056006 31.378435 
L 281.191577 19.296 
L 271.237876 30.746392 
L 261.488235 27.769427 
" style="fill:none;stroke:#ff7f0e;stroke-linecap:square;stroke-width:1.5;"/>
    <defs>
     <path d="M -3 0 
L 3 0 
M 0 3 
L 0 -3 
" id="mf7083c71d4" style="stroke:#ff7f0e;"/>
    </defs>
    <g clip-path="url(#p7022f3b785)">
     <use style="fill:#ff7f0e;stroke:#ff7f0e;" x="204.925523" xlink:href="#mf7083c71d4" y="148.305542"/>
     <use style="fill:#ff7f0e;stroke:#ff7f0e;" x="201.550791" xlink:href="#mf7083c71d4" y="144.254447"/>
     <use style="fill:#ff7f0e;stroke:#ff7f0e;" x="187.819778" xlink:href="#mf7083c71d4" y="79.649424"/>
     <use style="fill:#ff7f0e;stroke:#ff7f0e;" x="248.359589" xlink:href="#mf7083c71d4" y="109.415549"/>
     <use style="fill:#ff7f0e;stroke:#ff7f0e;" x="262.725318" xlink:href="#mf7083c71d4" y="144.553048"/>
     <use style="fill:#ff7f0e;stroke:#ff7f0e;" x="225.921552" xlink:href="#mf7083c71d4" y="131.690559"/>
     <use style="fill:#ff7f0e;stroke:#ff7f0e;" x="289.22471" xlink:href="#mf7083c71d4" y="111.886097"/>
     <use style="fill:#ff7f0e;stroke:#ff7f0e;" x="274.237189" xlink:href="#mf7083c71d4" y="109.007941"/>
     <use style="fill:#ff7f0e;stroke:#ff7f0e;" x="272.71843" xlink:href="#mf7083c71d4" y="107.845381"/>
     <use style="fill:#ff7f0e;stroke:#ff7f0e;" x="259.622541" xlink:href="#mf7083c71d4" y="86.855848"/>
     <use style="fill:#ff7f0e;stroke:#ff7f0e;" x="263.697688" xlink:href="#mf7083c71d4" y="105.71668"/>
     <use style="fill:#ff7f0e;stroke:#ff7f0e;" x="264.889991" xlink:href="#mf7083c71d4" y="107.183899"/>
     <use style="fill:#ff7f0e;stroke:#ff7f0e;" x="275.181543" xlink:href="#mf7083c71d4" y="113.078717"/>
     <use style="fill:#ff7f0e;stroke:#ff7f0e;" x="275.066899" xlink:href="#mf7083c71d4" y="114.426028"/>
     <use style="fill:#ff7f0e;stroke:#ff7f0e;" x="260.372716" xlink:href="#mf7083c71d4" y="129.57864"/>
     <use style="fill:#ff7f0e;stroke:#ff7f0e;" x="278.534387" xlink:href="#mf7083c71d4" y="145.335214"/>
     <use style="fill:#ff7f0e;stroke:#ff7f0e;" x="318.112405" xlink:href="#mf7083c71d4" y="173.435044"/>
     <use style="fill:#ff7f0e;stroke:#ff7f0e;" x="189.615242" xlink:href="#mf7083c71d4" y="138.366397"/>
     <use style="fill:#ff7f0e;stroke:#ff7f0e;" x="137.807655" xlink:href="#mf7083c71d4" y="117.939447"/>
     <use style="fill:#ff7f0e;stroke:#ff7f0e;" x="168.585235" xlink:href="#mf7083c71d4" y="136.347755"/>
     <use style="fill:#ff7f0e;stroke:#ff7f0e;" x="129.613194" xlink:href="#mf7083c71d4" y="101.466672"/>
     <use style="fill:#ff7f0e;stroke:#ff7f0e;" x="126.524903" xlink:href="#mf7083c71d4" y="98.361424"/>
     <use style="fill:#ff7f0e;stroke:#ff7f0e;" x="132.830685" xlink:href="#mf7083c71d4" y="106.769366"/>
     <use style="fill:#ff7f0e;stroke:#ff7f0e;" x="97.78384" xlink:href="#mf7083c71d4" y="250.383868"/>
     <use style="fill:#ff7f0e;stroke:#ff7f0e;" x="163.448721" xlink:href="#mf7083c71d4" y="261.216"/>
     <use style="fill:#ff7f0e;stroke:#ff7f0e;" x="128.833009" xlink:href="#mf7083c71d4" y="248.15337"/>
     <use style="fill:#ff7f0e;stroke:#ff7f0e;" x="310.561029" xlink:href="#mf7083c71d4" y="155.970473"/>
     <use style="fill:#ff7f0e;stroke:#ff7f0e;" x="266.056006" xlink:href="#mf7083c71d4" y="31.378435"/>
     <use style="fill:#ff7f0e;stroke:#ff7f0e;" x="281.191577" xlink:href="#mf7083c71d4" y="19.296"/>
     <use style="fill:#ff7f0e;stroke:#ff7f0e;" x="271.237876" xlink:href="#mf7083c71d4" y="30.746392"/>
     <use style="fill:#ff7f0e;stroke:#ff7f0e;" x="261.488235" xlink:href="#mf7083c71d4" y="27.769427"/>
    </g>
   </g>
   <g id="line2d_19">
    <path clip-path="url(#p7022f3b785)" d="M 204.925523 148.305542 
L 206.544448 147.480737 
L 203.40937 148.140274 
" style="fill:none;stroke:#2ca02c;stroke-linecap:square;stroke-width:1.5;"/>
    <defs>
     <path d="M -3 0 
L 3 0 
M 0 3 
L 0 -3 
" id="mced15d3d7e" style="stroke:#2ca02c;"/>
    </defs>
    <g clip-path="url(#p7022f3b785)">
     <use style="fill:#2ca02c;stroke:#2ca02c;" x="204.925523" xlink:href="#mced15d3d7e" y="148.305542"/>
     <use style="fill:#2ca02c;stroke:#2ca02c;" x="206.544448" xlink:href="#mced15d3d7e" y="147.480737"/>
     <use style="fill:#2ca02c;stroke:#2ca02c;" x="203.40937" xlink:href="#mced15d3d7e" y="148.140274"/>
    </g>
   </g>
   <g id="line2d_20">
    <path clip-path="url(#p7022f3b785)" d="M 204.925523 148.305542 
L 217.786148 174.939875 
L 260.769476 151.567402 
L 263.408306 149.363068 
L 262.067204 149.619883 
L 256.74508 153.004122 
L 258.489266 145.155966 
L 267.612715 142.72039 
L 267.843513 143.481984 
L 329.945535 157.578221 
L 321.827019 156.144417 
" style="fill:none;stroke:#d62728;stroke-linecap:square;stroke-width:1.5;"/>
    <defs>
     <path d="M -3 0 
L 3 0 
M 0 3 
L 0 -3 
" id="me8fe141948" style="stroke:#d62728;"/>
    </defs>
    <g clip-path="url(#p7022f3b785)">
     <use style="fill:#d62728;stroke:#d62728;" x="204.925523" xlink:href="#me8fe141948" y="148.305542"/>
     <use style="fill:#d62728;stroke:#d62728;" x="217.786148" xlink:href="#me8fe141948" y="174.939875"/>
     <use style="fill:#d62728;stroke:#d62728;" x="260.769476" xlink:href="#me8fe141948" y="151.567402"/>
     <use style="fill:#d62728;stroke:#d62728;" x="263.408306" xlink:href="#me8fe141948" y="149.363068"/>
     <use style="fill:#d62728;stroke:#d62728;" x="262.067204" xlink:href="#me8fe141948" y="149.619883"/>
     <use style="fill:#d62728;stroke:#d62728;" x="256.74508" xlink:href="#me8fe141948" y="153.004122"/>
     <use style="fill:#d62728;stroke:#d62728;" x="258.489266" xlink:href="#me8fe141948" y="145.155966"/>
     <use style="fill:#d62728;stroke:#d62728;" x="267.612715" xlink:href="#me8fe141948" y="142.72039"/>
     <use style="fill:#d62728;stroke:#d62728;" x="267.843513" xlink:href="#me8fe141948" y="143.481984"/>
     <use style="fill:#d62728;stroke:#d62728;" x="329.945535" xlink:href="#me8fe141948" y="157.578221"/>
     <use style="fill:#d62728;stroke:#d62728;" x="321.827019" xlink:href="#me8fe141948" y="156.144417"/>
    </g>
   </g>
   <g id="line2d_21">
    <path clip-path="url(#p7022f3b785)" d="M 204.925523 148.305542 
L 202.039488 80.945108 
L 198.431615 86.237695 
L 197.437357 76.087622 
" style="fill:none;stroke:#9467bd;stroke-linecap:square;stroke-width:1.5;"/>
    <defs>
     <path d="M -3 0 
L 3 0 
M 0 3 
L 0 -3 
" id="m830f41ef61" style="stroke:#9467bd;"/>
    </defs>
    <g clip-path="url(#p7022f3b785)">
     <use style="fill:#9467bd;stroke:#9467bd;" x="204.925523" xlink:href="#m830f41ef61" y="148.305542"/>
     <use style="fill:#9467bd;stroke:#9467bd;" x="202.039488" xlink:href="#m830f41ef61" y="80.945108"/>
     <use style="fill:#9467bd;stroke:#9467bd;" x="198.431615" xlink:href="#m830f41ef61" y="86.237695"/>
     <use style="fill:#9467bd;stroke:#9467bd;" x="197.437357" xlink:href="#m830f41ef61" y="76.087622"/>
    </g>
   </g>
   <g id="line2d_22">
    <defs>
     <path d="M 0 3 
C 0.795609 3 1.55874 2.683901 2.12132 2.12132 
C 2.683901 1.55874 3 0.795609 3 0 
C 3 -0.795609 2.683901 -1.55874 2.12132 -2.12132 
C 1.55874 -2.683901 0.795609 -3 0 -3 
C -0.795609 -3 -1.55874 -2.683901 -2.12132 -2.12132 
C -2.683901 -1.55874 -3 -0.795609 -3 0 
C -3 0.795609 -2.683901 1.55874 -2.12132 2.12132 
C -1.55874 2.683901 -0.795609 3 0 3 
z
" id="m476e2f6fa8" style="stroke:#ff0000;"/>
    </defs>
    <g clip-path="url(#p7022f3b785)">
     <use style="fill:#ff0000;stroke:#ff0000;" x="204.925523" xlink:href="#m476e2f6fa8" y="148.305542"/>
    </g>
   </g>
   <g id="patch_18">
    <path d="M 35.304688 273.312 
L 35.304688 7.2 
" style="fill:none;stroke:#000000;stroke-linecap:square;stroke-linejoin:miter;stroke-width:0.8;"/>
   </g>
   <g id="patch_19">
    <path d="M 392.424688 273.312 
L 392.424688 7.2 
" style="fill:none;stroke:#000000;stroke-linecap:square;stroke-linejoin:miter;stroke-width:0.8;"/>
   </g>
   <g id="patch_20">
    <path d="M 35.304688 273.312 
L 392.424688 273.312 
" style="fill:none;stroke:#000000;stroke-linecap:square;stroke-linejoin:miter;stroke-width:0.8;"/>
   </g>
   <g id="patch_21">
    <path d="M 35.304688 7.2 
L 392.424688 7.2 
" style="fill:none;stroke:#000000;stroke-linecap:square;stroke-linejoin:miter;stroke-width:0.8;"/>
   </g>
  </g>
 </g>
 <defs>
  <clipPath id="p7022f3b785">
   <rect height="266.112" width="357.12" x="35.304688" y="7.2"/>
  </clipPath>
 </defs>
</svg>
