<?xml version="1.0" encoding="utf-8" standalone="no"?>
<!DOCTYPE svg PUBLIC "-//W3C//DTD SVG 1.1//EN"
  "http://www.w3.org/Graphics/SVG/1.1/DTD/svg11.dtd">
<!-- Created with matplotlib (https://matplotlib.org/) -->
<svg height="297.190125pt" version="1.1" viewBox="0 0 399.624687 297.190125" width="399.624687pt" xmlns="http://www.w3.org/2000/svg" xmlns:xlink="http://www.w3.org/1999/xlink">
 <defs>
  <style type="text/css">
*{stroke-linecap:butt;stroke-linejoin:round;}
  </style>
 </defs>
 <g id="figure_1">
  <g id="patch_1">
   <path d="M 0 297.190125 
L 399.624687 297.190125 
L 399.624687 0 
L 0 0 
z
" style="fill:#ffffff;"/>
  </g>
  <g id="axes_1">
   <g id="patch_2">
    <path d="M 35.304688 273.312 
L 392.424688 273.312 
L 392.424688 7.2 
L 35.304688 7.2 
z
" style="fill:#ffffff;"/>
   </g>
   <g id="patch_3">
    <path clip-path="url(#p7b6f895779)" d="M 170.059165 126.213533 
C 182.494098 126.213533 194.421403 121.273082 203.214228 112.480257 
C 212.007053 103.687431 216.947504 91.760127 216.947504 79.325194 
C 216.947504 66.890262 212.007053 54.962957 203.214228 46.170132 
C 194.421403 37.377307 182.494098 32.436856 170.059165 32.436856 
C 157.624233 32.436856 145.696928 37.377307 136.904103 46.170132 
C 128.111278 54.962957 123.170827 66.890262 123.170827 79.325194 
C 123.170827 91.760127 128.111278 103.687431 136.904103 112.480257 
C 145.696928 121.273082 157.624233 126.213533 170.059165 126.213533 
z
" style="fill:none;stroke:#000000;stroke-linejoin:miter;"/>
   </g>
   <g id="patch_4">
    <path clip-path="url(#p7b6f895779)" d="M 342.340051 141.641579 
C 354.774984 141.641579 366.702288 136.701127 375.495114 127.908302 
C 384.287939 119.115477 389.22839 107.188172 389.22839 94.75324 
C 389.22839 82.318307 384.287939 70.391003 375.495114 61.598177 
C 366.702288 52.805352 354.774984 47.864901 342.340051 47.864901 
C 329.905118 47.864901 317.977814 52.805352 309.184989 61.598177 
C 300.392164 70.391003 295.451712 82.318307 295.451712 94.75324 
C 295.451712 107.188172 300.392164 119.115477 309.184989 127.908302 
C 317.977814 136.701127 329.905118 141.641579 342.340051 141.641579 
z
" style="fill:none;stroke:#000000;stroke-linejoin:miter;"/>
   </g>
   <g id="patch_5">
    <path clip-path="url(#p7b6f895779)" d="M 344.048193 298.533805 
C 356.483126 298.533805 368.410431 293.593354 377.203256 284.800529 
C 385.996081 276.007703 390.936532 264.080399 390.936532 251.645466 
C 390.936532 239.210534 385.996081 227.283229 377.203256 218.490404 
C 368.410431 209.697579 356.483126 204.757128 344.048193 204.757128 
C 331.613261 204.757128 319.685956 209.697579 310.893131 218.490404 
C 302.100306 227.283229 297.159855 239.210534 297.159855 251.645466 
C 297.159855 264.080399 302.100306 276.007703 310.893131 284.800529 
C 319.685956 293.593354 331.613261 298.533805 344.048193 298.533805 
z
" style="fill:none;stroke:#000000;stroke-linejoin:miter;"/>
   </g>
   <g id="patch_6">
    <path clip-path="url(#p7b6f895779)" d="M 157.637507 330.822991 
C 170.07244 330.822991 181.999744 325.88254 190.792569 317.089714 
C 199.585394 308.296889 204.525846 296.369585 204.525846 283.934652 
C 204.525846 271.499719 199.585394 259.572415 190.792569 250.77959 
C 181.999744 241.986764 170.07244 237.046313 157.637507 237.046313 
C 145.202574 237.046313 133.27527 241.986764 124.482444 250.77959 
C 115.689619 259.572415 110.749168 271.499719 110.749168 283.934652 
C 110.749168 296.369585 115.689619 308.296889 124.482444 317.089714 
C 133.27527 325.88254 145.202574 330.822991 157.637507 330.822991 
z
" style="fill:none;stroke:#000000;stroke-linejoin:miter;"/>
   </g>
   <g id="patch_7">
    <path clip-path="url(#p7b6f895779)" d="M 371.679492 12.690769 
C 384.114424 12.690769 396.041729 7.750318 404.834554 -1.042507 
C 413.627379 -9.835332 418.56783 -21.762637 418.56783 -34.19757 
C 418.56783 -46.632502 413.627379 -58.559807 404.834554 -67.352632 
C 396.041729 -76.145457 384.114424 -81.085908 371.679492 -81.085908 
C 359.244559 -81.085908 347.317254 -76.145457 338.524429 -67.352632 
C 329.731604 -58.559807 324.791153 -46.632502 324.791153 -34.19757 
C 324.791153 -21.762637 329.731604 -9.835332 338.524429 -1.042507 
C 347.317254 7.750318 359.244559 12.690769 371.679492 12.690769 
z
" style="fill:none;stroke:#000000;stroke-linejoin:miter;"/>
   </g>
   <g id="patch_8">
    <path clip-path="url(#p7b6f895779)" d="M 106.723335 223.152454 
C 119.158268 223.152454 131.085572 218.212003 139.878397 209.419178 
C 148.671223 200.626353 153.611674 188.699048 153.611674 176.264116 
C 153.611674 163.829183 148.671223 151.901878 139.878397 143.109053 
C 131.085572 134.316228 119.158268 129.375777 106.723335 129.375777 
C 94.288402 129.375777 82.361098 134.316228 73.568273 143.109053 
C 64.775447 151.901878 59.834996 163.829183 59.834996 176.264116 
C 59.834996 188.699048 64.775447 200.626353 73.568273 209.419178 
C 82.361098 218.212003 94.288402 223.152454 106.723335 223.152454 
z
" style="fill:none;stroke:#000000;stroke-linejoin:miter;"/>
   </g>
   <g id="patch_9">
    <path clip-path="url(#p7b6f895779)" d="M 471.624799 6.584032 
C 484.059732 6.584032 495.987036 1.643581 504.779862 -7.149244 
C 513.572687 -15.94207 518.513138 -27.869374 518.513138 -40.304307 
C 518.513138 -52.73924 513.572687 -64.666544 504.779862 -73.459369 
C 495.987036 -82.252194 484.059732 -87.192646 471.624799 -87.192646 
C 459.189866 -87.192646 447.262562 -82.252194 438.469737 -73.459369 
C 429.676911 -64.666544 424.73646 -52.73924 424.73646 -40.304307 
C 424.73646 -27.869374 429.676911 -15.94207 438.469737 -7.149244 
C 447.262562 1.643581 459.189866 6.584032 471.624799 6.584032 
z
" style="fill:none;stroke:#000000;stroke-linejoin:miter;"/>
   </g>
   <g id="patch_10">
    <path clip-path="url(#p7b6f895779)" d="M 438.756543 306.795999 
C 451.191475 306.795999 463.11878 301.855548 471.911605 293.062723 
C 480.70443 284.269898 485.644881 272.342593 485.644881 259.907661 
C 485.644881 247.472728 480.70443 235.545424 471.911605 226.752598 
C 463.11878 217.959773 451.191475 213.019322 438.756543 213.019322 
C 426.32161 213.019322 414.394305 217.959773 405.60148 226.752598 
C 396.808655 235.545424 391.868204 247.472728 391.868204 259.907661 
C 391.868204 272.342593 396.808655 284.269898 405.60148 293.062723 
C 414.394305 301.855548 426.32161 306.795999 438.756543 306.795999 
z
" style="fill:none;stroke:#000000;stroke-linejoin:miter;"/>
   </g>
   <g id="patch_11">
    <path clip-path="url(#p7b6f895779)" d="M 443.892222 210.243954 
C 456.327155 210.243954 468.254459 205.303503 477.047285 196.510678 
C 485.84011 187.717852 490.780561 175.790548 490.780561 163.355615 
C 490.780561 150.920682 485.84011 138.993378 477.047285 130.200553 
C 468.254459 121.407727 456.327155 116.467276 443.892222 116.467276 
C 431.457289 116.467276 419.529985 121.407727 410.73716 130.200553 
C 401.944335 138.993378 397.003883 150.920682 397.003883 163.355615 
C 397.003883 175.790548 401.944335 187.717852 410.73716 196.510678 
C 419.529985 205.303503 431.457289 210.243954 443.892222 210.243954 
z
" style="fill:none;stroke:#000000;stroke-linejoin:miter;"/>
   </g>
   <g id="patch_12">
    <path clip-path="url(#p7b6f895779)" d="M 261.793903 91.746853 
C 274.228836 91.746853 286.15614 86.806402 294.948965 78.013577 
C 303.741791 69.220751 308.682242 57.293447 308.682242 44.858514 
C 308.682242 32.423581 303.741791 20.496277 294.948965 11.703452 
C 286.15614 2.910627 274.228836 -2.029825 261.793903 -2.029825 
C 249.35897 -2.029825 237.431666 2.910627 228.638841 11.703452 
C 219.846015 20.496277 214.905564 32.423581 214.905564 44.858514 
C 214.905564 57.293447 219.846015 69.220751 228.638841 78.013577 
C 237.431666 86.806402 249.35897 91.746853 261.793903 91.746853 
z
" style="fill:none;stroke:#000000;stroke-linejoin:miter;"/>
   </g>
   <g id="patch_13">
    <path clip-path="url(#p7b6f895779)" d="M 139.459836 28.129224 
C 151.894768 28.129224 163.822073 23.188773 172.614898 14.395947 
C 181.407723 5.603122 186.348174 -6.324182 186.348174 -18.759115 
C 186.348174 -31.194048 181.407723 -43.121352 172.614898 -51.914177 
C 163.822073 -60.707003 151.894768 -65.647454 139.459836 -65.647454 
C 127.024903 -65.647454 115.097598 -60.707003 106.304773 -51.914177 
C 97.511948 -43.121352 92.571497 -31.194048 92.571497 -18.759115 
C 92.571497 -6.324182 97.511948 5.603122 106.304773 14.395947 
C 115.097598 23.188773 127.024903 28.129224 139.459836 28.129224 
z
" style="fill:none;stroke:#000000;stroke-linejoin:miter;"/>
   </g>
   <g id="patch_14">
    <path clip-path="url(#p7b6f895779)" d="M 247.519686 201.259351 
C 259.954619 201.259351 271.881923 196.3189 280.674748 187.526075 
C 289.467574 178.733249 294.408025 166.805945 294.408025 154.371012 
C 294.408025 141.93608 289.467574 130.008775 280.674748 121.21595 
C 271.881923 112.423125 259.954619 107.482673 247.519686 107.482673 
C 235.084753 107.482673 223.157449 112.423125 214.364624 121.21595 
C 205.571798 130.008775 200.631347 141.93608 200.631347 154.371012 
C 200.631347 166.805945 205.571798 178.733249 214.364624 187.526075 
C 223.157449 196.3189 235.084753 201.259351 247.519686 201.259351 
z
" style="fill:none;stroke:#000000;stroke-linejoin:miter;"/>
   </g>
   <g id="patch_15">
    <path clip-path="url(#p7b6f895779)" d="M 251.458682 331.700741 
C 263.893614 331.700741 275.820919 326.76029 284.613744 317.967464 
C 293.406569 309.174639 298.34702 297.247335 298.34702 284.812402 
C 298.34702 272.377469 293.406569 260.450165 284.613744 251.657339 
C 275.820919 242.864514 263.893614 237.924063 251.458682 237.924063 
C 239.023749 237.924063 227.096444 242.864514 218.303619 251.657339 
C 209.510794 260.450165 204.570343 272.377469 204.570343 284.812402 
C 204.570343 297.247335 209.510794 309.174639 218.303619 317.967464 
C 227.096444 326.76029 239.023749 331.700741 251.458682 331.700741 
z
" style="fill:none;stroke:#000000;stroke-linejoin:miter;"/>
   </g>
   <g id="patch_16">
    <path clip-path="url(#p7b6f895779)" d="M 261.899074 -6.149903 
C 274.334006 -6.149903 286.261311 -11.090354 295.054136 -19.883179 
C 303.846961 -28.676005 308.787412 -40.603309 308.787412 -53.038242 
C 308.787412 -65.473175 303.846961 -77.400479 295.054136 -86.193304 
C 286.261311 -94.98613 274.334006 -99.926581 261.899074 -99.926581 
C 249.464141 -99.926581 237.536836 -94.98613 228.744011 -86.193304 
C 219.951186 -77.400479 215.010735 -65.473175 215.010735 -53.038242 
C 215.010735 -40.603309 219.951186 -28.676005 228.744011 -19.883179 
C 237.536836 -11.090354 249.464141 -6.149903 261.899074 -6.149903 
z
" style="fill:none;stroke:#000000;stroke-linejoin:miter;"/>
   </g>
   <g id="patch_17">
    <path clip-path="url(#p7b6f895779)" d="M 463.827737 111.838037 
C 476.26267 111.838037 488.189974 106.897586 496.9828 98.104761 
C 505.775625 89.311936 510.716076 77.384631 510.716076 64.949699 
C 510.716076 52.514766 505.775625 40.587462 496.9828 31.794636 
C 488.189974 23.001811 476.26267 18.06136 463.827737 18.06136 
C 451.392804 18.06136 439.4655 23.001811 430.672675 31.794636 
C 421.87985 40.587462 416.939398 52.514766 416.939398 64.949699 
C 416.939398 77.384631 421.87985 89.311936 430.672675 98.104761 
C 439.4655 106.897586 451.392804 111.838037 463.827737 111.838037 
z
" style="fill:none;stroke:#000000;stroke-linejoin:miter;"/>
   </g>
   <g id="matplotlib.axis_1">
    <g id="xtick_1">
     <g id="line2d_1">
      <defs>
       <path d="M 0 0 
L 0 3.5 
" id="m11a4051f20" style="stroke:#000000;stroke-width:0.8;"/>
      </defs>
      <g>
       <use style="stroke:#000000;stroke-width:0.8;" x="52.042154" xlink:href="#m11a4051f20" y="273.312"/>
      </g>
     </g>
     <g id="text_1">
      <!-- −50 -->
      <defs>
       <path d="M 10.59375 35.5 
L 73.1875 35.5 
L 73.1875 27.203125 
L 10.59375 27.203125 
z
" id="DejaVuSans-8722"/>
       <path d="M 10.796875 72.90625 
L 49.515625 72.90625 
L 49.515625 64.59375 
L 19.828125 64.59375 
L 19.828125 46.734375 
Q 21.96875 47.46875 24.109375 47.828125 
Q 26.265625 48.1875 28.421875 48.1875 
Q 40.625 48.1875 47.75 41.5 
Q 54.890625 34.8125 54.890625 23.390625 
Q 54.890625 11.625 47.5625 5.09375 
Q 40.234375 -1.421875 26.90625 -1.421875 
Q 22.3125 -1.421875 17.546875 -0.640625 
Q 12.796875 0.140625 7.71875 1.703125 
L 7.71875 11.625 
Q 12.109375 9.234375 16.796875 8.0625 
Q 21.484375 6.890625 26.703125 6.890625 
Q 35.15625 6.890625 40.078125 11.328125 
Q 45.015625 15.765625 45.015625 23.390625 
Q 45.015625 31 40.078125 35.4375 
Q 35.15625 39.890625 26.703125 39.890625 
Q 22.75 39.890625 18.8125 39.015625 
Q 14.890625 38.140625 10.796875 36.28125 
z
" id="DejaVuSans-53"/>
       <path d="M 31.78125 66.40625 
Q 24.171875 66.40625 20.328125 58.90625 
Q 16.5 51.421875 16.5 36.375 
Q 16.5 21.390625 20.328125 13.890625 
Q 24.171875 6.390625 31.78125 6.390625 
Q 39.453125 6.390625 43.28125 13.890625 
Q 47.125 21.390625 47.125 36.375 
Q 47.125 51.421875 43.28125 58.90625 
Q 39.453125 66.40625 31.78125 66.40625 
z
M 31.78125 74.21875 
Q 44.046875 74.21875 50.515625 64.515625 
Q 56.984375 54.828125 56.984375 36.375 
Q 56.984375 17.96875 50.515625 8.265625 
Q 44.046875 -1.421875 31.78125 -1.421875 
Q 19.53125 -1.421875 13.0625 8.265625 
Q 6.59375 17.96875 6.59375 36.375 
Q 6.59375 54.828125 13.0625 64.515625 
Q 19.53125 74.21875 31.78125 74.21875 
z
" id="DejaVuSans-48"/>
      </defs>
      <g transform="translate(41.489811 287.910437)scale(0.1 -0.1)">
       <use xlink:href="#DejaVuSans-8722"/>
       <use x="83.789062" xlink:href="#DejaVuSans-53"/>
       <use x="147.412109" xlink:href="#DejaVuSans-48"/>
      </g>
     </g>
    </g>
    <g id="xtick_2">
     <g id="line2d_2">
      <g>
       <use style="stroke:#000000;stroke-width:0.8;" x="98.930493" xlink:href="#m11a4051f20" y="273.312"/>
      </g>
     </g>
     <g id="text_2">
      <!-- −40 -->
      <defs>
       <path d="M 37.796875 64.3125 
L 12.890625 25.390625 
L 37.796875 25.390625 
z
M 35.203125 72.90625 
L 47.609375 72.90625 
L 47.609375 25.390625 
L 58.015625 25.390625 
L 58.015625 17.1875 
L 47.609375 17.1875 
L 47.609375 0 
L 37.796875 0 
L 37.796875 17.1875 
L 4.890625 17.1875 
L 4.890625 26.703125 
z
" id="DejaVuSans-52"/>
      </defs>
      <g transform="translate(88.378149 287.910437)scale(0.1 -0.1)">
       <use xlink:href="#DejaVuSans-8722"/>
       <use x="83.789062" xlink:href="#DejaVuSans-52"/>
       <use x="147.412109" xlink:href="#DejaVuSans-48"/>
      </g>
     </g>
    </g>
    <g id="xtick_3">
     <g id="line2d_3">
      <g>
       <use style="stroke:#000000;stroke-width:0.8;" x="145.818832" xlink:href="#m11a4051f20" y="273.312"/>
      </g>
     </g>
     <g id="text_3">
      <!-- −30 -->
      <defs>
       <path d="M 40.578125 39.3125 
Q 47.65625 37.796875 51.625 33 
Q 55.609375 28.21875 55.609375 21.1875 
Q 55.609375 10.40625 48.1875 4.484375 
Q 40.765625 -1.421875 27.09375 -1.421875 
Q 22.515625 -1.421875 17.65625 -0.515625 
Q 12.796875 0.390625 7.625 2.203125 
L 7.625 11.71875 
Q 11.71875 9.328125 16.59375 8.109375 
Q 21.484375 6.890625 26.8125 6.890625 
Q 36.078125 6.890625 40.9375 10.546875 
Q 45.796875 14.203125 45.796875 21.1875 
Q 45.796875 27.640625 41.28125 31.265625 
Q 36.765625 34.90625 28.71875 34.90625 
L 20.21875 34.90625 
L 20.21875 43.015625 
L 29.109375 43.015625 
Q 36.375 43.015625 40.234375 45.921875 
Q 44.09375 48.828125 44.09375 54.296875 
Q 44.09375 59.90625 40.109375 62.90625 
Q 36.140625 65.921875 28.71875 65.921875 
Q 24.65625 65.921875 20.015625 65.03125 
Q 15.375 64.15625 9.8125 62.3125 
L 9.8125 71.09375 
Q 15.4375 72.65625 20.34375 73.4375 
Q 25.25 74.21875 29.59375 74.21875 
Q 40.828125 74.21875 47.359375 69.109375 
Q 53.90625 64.015625 53.90625 55.328125 
Q 53.90625 49.265625 50.4375 45.09375 
Q 46.96875 40.921875 40.578125 39.3125 
z
" id="DejaVuSans-51"/>
      </defs>
      <g transform="translate(135.266488 287.910437)scale(0.1 -0.1)">
       <use xlink:href="#DejaVuSans-8722"/>
       <use x="83.789062" xlink:href="#DejaVuSans-51"/>
       <use x="147.412109" xlink:href="#DejaVuSans-48"/>
      </g>
     </g>
    </g>
    <g id="xtick_4">
     <g id="line2d_4">
      <g>
       <use style="stroke:#000000;stroke-width:0.8;" x="192.707171" xlink:href="#m11a4051f20" y="273.312"/>
      </g>
     </g>
     <g id="text_4">
      <!-- −20 -->
      <defs>
       <path d="M 19.1875 8.296875 
L 53.609375 8.296875 
L 53.609375 0 
L 7.328125 0 
L 7.328125 8.296875 
Q 12.9375 14.109375 22.625 23.890625 
Q 32.328125 33.6875 34.8125 36.53125 
Q 39.546875 41.84375 41.421875 45.53125 
Q 43.3125 49.21875 43.3125 52.78125 
Q 43.3125 58.59375 39.234375 62.25 
Q 35.15625 65.921875 28.609375 65.921875 
Q 23.96875 65.921875 18.8125 64.3125 
Q 13.671875 62.703125 7.8125 59.421875 
L 7.8125 69.390625 
Q 13.765625 71.78125 18.9375 73 
Q 24.125 74.21875 28.421875 74.21875 
Q 39.75 74.21875 46.484375 68.546875 
Q 53.21875 62.890625 53.21875 53.421875 
Q 53.21875 48.921875 51.53125 44.890625 
Q 49.859375 40.875 45.40625 35.40625 
Q 44.1875 33.984375 37.640625 27.21875 
Q 31.109375 20.453125 19.1875 8.296875 
z
" id="DejaVuSans-50"/>
      </defs>
      <g transform="translate(182.154827 287.910437)scale(0.1 -0.1)">
       <use xlink:href="#DejaVuSans-8722"/>
       <use x="83.789062" xlink:href="#DejaVuSans-50"/>
       <use x="147.412109" xlink:href="#DejaVuSans-48"/>
      </g>
     </g>
    </g>
    <g id="xtick_5">
     <g id="line2d_5">
      <g>
       <use style="stroke:#000000;stroke-width:0.8;" x="239.59551" xlink:href="#m11a4051f20" y="273.312"/>
      </g>
     </g>
     <g id="text_5">
      <!-- −10 -->
      <defs>
       <path d="M 12.40625 8.296875 
L 28.515625 8.296875 
L 28.515625 63.921875 
L 10.984375 60.40625 
L 10.984375 69.390625 
L 28.421875 72.90625 
L 38.28125 72.90625 
L 38.28125 8.296875 
L 54.390625 8.296875 
L 54.390625 0 
L 12.40625 0 
z
" id="DejaVuSans-49"/>
      </defs>
      <g transform="translate(229.043166 287.910437)scale(0.1 -0.1)">
       <use xlink:href="#DejaVuSans-8722"/>
       <use x="83.789062" xlink:href="#DejaVuSans-49"/>
       <use x="147.412109" xlink:href="#DejaVuSans-48"/>
      </g>
     </g>
    </g>
    <g id="xtick_6">
     <g id="line2d_6">
      <g>
       <use style="stroke:#000000;stroke-width:0.8;" x="286.483849" xlink:href="#m11a4051f20" y="273.312"/>
      </g>
     </g>
     <g id="text_6">
      <!-- 0 -->
      <g transform="translate(283.302599 287.910437)scale(0.1 -0.1)">
       <use xlink:href="#DejaVuSans-48"/>
      </g>
     </g>
    </g>
    <g id="xtick_7">
     <g id="line2d_7">
      <g>
       <use style="stroke:#000000;stroke-width:0.8;" x="333.372188" xlink:href="#m11a4051f20" y="273.312"/>
      </g>
     </g>
     <g id="text_7">
      <!-- 10 -->
      <g transform="translate(327.009688 287.910437)scale(0.1 -0.1)">
       <use xlink:href="#DejaVuSans-49"/>
       <use x="63.623047" xlink:href="#DejaVuSans-48"/>
      </g>
     </g>
    </g>
    <g id="xtick_8">
     <g id="line2d_8">
      <g>
       <use style="stroke:#000000;stroke-width:0.8;" x="380.260526" xlink:href="#m11a4051f20" y="273.312"/>
      </g>
     </g>
     <g id="text_8">
      <!-- 20 -->
      <g transform="translate(373.898026 287.910437)scale(0.1 -0.1)">
       <use xlink:href="#DejaVuSans-50"/>
       <use x="63.623047" xlink:href="#DejaVuSans-48"/>
      </g>
     </g>
    </g>
   </g>
   <g id="matplotlib.axis_2">
    <g id="ytick_1">
     <g id="line2d_9">
      <defs>
       <path d="M 0 0 
L -3.5 0 
" id="m258b54b2fd" style="stroke:#000000;stroke-width:0.8;"/>
      </defs>
      <g>
       <use style="stroke:#000000;stroke-width:0.8;" x="35.304688" xlink:href="#m258b54b2fd" y="227.543922"/>
      </g>
     </g>
     <g id="text_9">
      <!-- −20 -->
      <g transform="translate(7.2 231.343141)scale(0.1 -0.1)">
       <use xlink:href="#DejaVuSans-8722"/>
       <use x="83.789062" xlink:href="#DejaVuSans-50"/>
       <use x="147.412109" xlink:href="#DejaVuSans-48"/>
      </g>
     </g>
    </g>
    <g id="ytick_2">
     <g id="line2d_10">
      <g>
       <use style="stroke:#000000;stroke-width:0.8;" x="35.304688" xlink:href="#m258b54b2fd" y="180.655584"/>
      </g>
     </g>
     <g id="text_10">
      <!-- −10 -->
      <g transform="translate(7.2 184.454802)scale(0.1 -0.1)">
       <use xlink:href="#DejaVuSans-8722"/>
       <use x="83.789062" xlink:href="#DejaVuSans-49"/>
       <use x="147.412109" xlink:href="#DejaVuSans-48"/>
      </g>
     </g>
    </g>
    <g id="ytick_3">
     <g id="line2d_11">
      <g>
       <use style="stroke:#000000;stroke-width:0.8;" x="35.304688" xlink:href="#m258b54b2fd" y="133.767245"/>
      </g>
     </g>
     <g id="text_11">
      <!-- 0 -->
      <g transform="translate(21.942187 137.566463)scale(0.1 -0.1)">
       <use xlink:href="#DejaVuSans-48"/>
      </g>
     </g>
    </g>
    <g id="ytick_4">
     <g id="line2d_12">
      <g>
       <use style="stroke:#000000;stroke-width:0.8;" x="35.304688" xlink:href="#m258b54b2fd" y="86.878906"/>
      </g>
     </g>
     <g id="text_12">
      <!-- 10 -->
      <g transform="translate(15.579687 90.678125)scale(0.1 -0.1)">
       <use xlink:href="#DejaVuSans-49"/>
       <use x="63.623047" xlink:href="#DejaVuSans-48"/>
      </g>
     </g>
    </g>
    <g id="ytick_5">
     <g id="line2d_13">
      <g>
       <use style="stroke:#000000;stroke-width:0.8;" x="35.304688" xlink:href="#m258b54b2fd" y="39.990567"/>
      </g>
     </g>
     <g id="text_13">
      <!-- 20 -->
      <g transform="translate(15.579687 43.789786)scale(0.1 -0.1)">
       <use xlink:href="#DejaVuSans-50"/>
       <use x="63.623047" xlink:href="#DejaVuSans-48"/>
      </g>
     </g>
    </g>
   </g>
   <g id="line2d_14">
    <path clip-path="url(#p7b6f895779)" d="M 286.483849 133.767245 
L 314.097662 135.123171 
L 257.000541 174.946417 
L 125.717027 254.533188 
L 137.514827 261.216 
L 139.071699 257.458926 
L 111.667091 183.929937 
" style="fill:none;stroke:#1f77b4;stroke-linecap:square;stroke-width:1.5;"/>
    <defs>
     <path d="M -3 0 
L 3 0 
M 0 3 
L 0 -3 
" id="m7baadae206" style="stroke:#1f77b4;"/>
    </defs>
    <g clip-path="url(#p7b6f895779)">
     <use style="fill:#1f77b4;stroke:#1f77b4;" x="286.483849" xlink:href="#m7baadae206" y="133.767245"/>
     <use style="fill:#1f77b4;stroke:#1f77b4;" x="314.097662" xlink:href="#m7baadae206" y="135.123171"/>
     <use style="fill:#1f77b4;stroke:#1f77b4;" x="257.000541" xlink:href="#m7baadae206" y="174.946417"/>
     <use style="fill:#1f77b4;stroke:#1f77b4;" x="125.717027" xlink:href="#m7baadae206" y="254.533188"/>
     <use style="fill:#1f77b4;stroke:#1f77b4;" x="137.514827" xlink:href="#m7baadae206" y="261.216"/>
     <use style="fill:#1f77b4;stroke:#1f77b4;" x="139.071699" xlink:href="#m7baadae206" y="257.458926"/>
     <use style="fill:#1f77b4;stroke:#1f77b4;" x="111.667091" xlink:href="#m7baadae206" y="183.929937"/>
    </g>
   </g>
   <g id="line2d_15">
    <path clip-path="url(#p7b6f895779)" d="M 286.483849 133.767245 
L 302.648861 198.387651 
" style="fill:none;stroke:#ff7f0e;stroke-linecap:square;stroke-width:1.5;"/>
    <defs>
     <path d="M -3 0 
L 3 0 
M 0 3 
L 0 -3 
" id="mdb81062a18" style="stroke:#ff7f0e;"/>
    </defs>
    <g clip-path="url(#p7b6f895779)">
     <use style="fill:#ff7f0e;stroke:#ff7f0e;" x="286.483849" xlink:href="#mdb81062a18" y="133.767245"/>
     <use style="fill:#ff7f0e;stroke:#ff7f0e;" x="302.648861" xlink:href="#mdb81062a18" y="198.387651"/>
    </g>
   </g>
   <g id="line2d_16">
    <path clip-path="url(#p7b6f895779)" d="M 286.483849 133.767245 
L 282.120265 128.197473 
L 280.197412 122.630908 
L 316.062284 92.255146 
L 303.007881 100.244877 
L 298.00113 86.443308 
" style="fill:none;stroke:#2ca02c;stroke-linecap:square;stroke-width:1.5;"/>
    <defs>
     <path d="M -3 0 
L 3 0 
M 0 3 
L 0 -3 
" id="m94e3dffe85" style="stroke:#2ca02c;"/>
    </defs>
    <g clip-path="url(#p7b6f895779)">
     <use style="fill:#2ca02c;stroke:#2ca02c;" x="286.483849" xlink:href="#m94e3dffe85" y="133.767245"/>
     <use style="fill:#2ca02c;stroke:#2ca02c;" x="282.120265" xlink:href="#m94e3dffe85" y="128.197473"/>
     <use style="fill:#2ca02c;stroke:#2ca02c;" x="280.197412" xlink:href="#m94e3dffe85" y="122.630908"/>
     <use style="fill:#2ca02c;stroke:#2ca02c;" x="316.062284" xlink:href="#m94e3dffe85" y="92.255146"/>
     <use style="fill:#2ca02c;stroke:#2ca02c;" x="303.007881" xlink:href="#m94e3dffe85" y="100.244877"/>
     <use style="fill:#2ca02c;stroke:#2ca02c;" x="298.00113" xlink:href="#m94e3dffe85" y="86.443308"/>
    </g>
   </g>
   <g id="line2d_17">
    <path clip-path="url(#p7b6f895779)" d="M 286.483849 133.767245 
" style="fill:none;stroke:#d62728;stroke-linecap:square;stroke-width:1.5;"/>
    <defs>
     <path d="M -3 0 
L 3 0 
M 0 3 
L 0 -3 
" id="m3304467012" style="stroke:#d62728;"/>
    </defs>
    <g clip-path="url(#p7b6f895779)">
     <use style="fill:#d62728;stroke:#d62728;" x="286.483849" xlink:href="#m3304467012" y="133.767245"/>
    </g>
   </g>
   <g id="line2d_18">
    <path clip-path="url(#p7b6f895779)" d="M 286.483849 133.767245 
L 289.249454 139.197261 
L 266.985549 91.580095 
L 269.543992 74.332186 
L 172.593438 58.791229 
L 143.877209 41.297879 
L 145.585164 40.354524 
L 131.749798 19.296 
L 124.160672 66.716282 
" style="fill:none;stroke:#9467bd;stroke-linecap:square;stroke-width:1.5;"/>
    <defs>
     <path d="M -3 0 
L 3 0 
M 0 3 
L 0 -3 
" id="mae4e00c855" style="stroke:#9467bd;"/>
    </defs>
    <g clip-path="url(#p7b6f895779)">
     <use style="fill:#9467bd;stroke:#9467bd;" x="286.483849" xlink:href="#mae4e00c855" y="133.767245"/>
     <use style="fill:#9467bd;stroke:#9467bd;" x="289.249454" xlink:href="#mae4e00c855" y="139.197261"/>
     <use style="fill:#9467bd;stroke:#9467bd;" x="266.985549" xlink:href="#mae4e00c855" y="91.580095"/>
     <use style="fill:#9467bd;stroke:#9467bd;" x="269.543992" xlink:href="#mae4e00c855" y="74.332186"/>
     <use style="fill:#9467bd;stroke:#9467bd;" x="172.593438" xlink:href="#mae4e00c855" y="58.791229"/>
     <use style="fill:#9467bd;stroke:#9467bd;" x="143.877209" xlink:href="#mae4e00c855" y="41.297879"/>
     <use style="fill:#9467bd;stroke:#9467bd;" x="145.585164" xlink:href="#mae4e00c855" y="40.354524"/>
     <use style="fill:#9467bd;stroke:#9467bd;" x="131.749798" xlink:href="#mae4e00c855" y="19.296"/>
     <use style="fill:#9467bd;stroke:#9467bd;" x="124.160672" xlink:href="#mae4e00c855" y="66.716282"/>
    </g>
   </g>
   <g id="line2d_19">
    <defs>
     <path d="M 0 3 
C 0.795609 3 1.55874 2.683901 2.12132 2.12132 
C 2.683901 1.55874 3 0.795609 3 0 
C 3 -0.795609 2.683901 -1.55874 2.12132 -2.12132 
C 1.55874 -2.683901 0.795609 -3 0 -3 
C -0.795609 -3 -1.55874 -2.683901 -2.12132 -2.12132 
C -2.683901 -1.55874 -3 -0.795609 -3 0 
C -3 0.795609 -2.683901 1.55874 -2.12132 2.12132 
C -1.55874 2.683901 -0.795609 3 0 3 
z
" id="m8924acf735" style="stroke:#ff0000;"/>
    </defs>
    <g clip-path="url(#p7b6f895779)">
     <use style="fill:#ff0000;stroke:#ff0000;" x="286.483849" xlink:href="#m8924acf735" y="133.767245"/>
    </g>
   </g>
   <g id="patch_18">
    <path d="M 35.304688 273.312 
L 35.304688 7.2 
" style="fill:none;stroke:#000000;stroke-linecap:square;stroke-linejoin:miter;stroke-width:0.8;"/>
   </g>
   <g id="patch_19">
    <path d="M 392.424688 273.312 
L 392.424688 7.2 
" style="fill:none;stroke:#000000;stroke-linecap:square;stroke-linejoin:miter;stroke-width:0.8;"/>
   </g>
   <g id="patch_20">
    <path d="M 35.304688 273.312 
L 392.424688 273.312 
" style="fill:none;stroke:#000000;stroke-linecap:square;stroke-linejoin:miter;stroke-width:0.8;"/>
   </g>
   <g id="patch_21">
    <path d="M 35.304688 7.2 
L 392.424688 7.2 
" style="fill:none;stroke:#000000;stroke-linecap:square;stroke-linejoin:miter;stroke-width:0.8;"/>
   </g>
  </g>
 </g>
 <defs>
  <clipPath id="p7b6f895779">
   <rect height="266.112" width="357.12" x="35.304688" y="7.2"/>
  </clipPath>
 </defs>
</svg>
