<?xml version="1.0" encoding="utf-8" standalone="no"?>
<!DOCTYPE svg PUBLIC "-//W3C//DTD SVG 1.1//EN"
  "http://www.w3.org/Graphics/SVG/1.1/DTD/svg11.dtd">
<!-- Created with matplotlib (https://matplotlib.org/) -->
<svg height="297.190125pt" version="1.1" viewBox="0 0 391.245 297.190125" width="391.245pt" xmlns="http://www.w3.org/2000/svg" xmlns:xlink="http://www.w3.org/1999/xlink">
 <defs>
  <style type="text/css">
*{stroke-linecap:butt;stroke-linejoin:round;}
  </style>
 </defs>
 <g id="figure_1">
  <g id="patch_1">
   <path d="M 0 297.190125 
L 391.245 297.190125 
L 391.245 0 
L 0 0 
z
" style="fill:#ffffff;"/>
  </g>
  <g id="axes_1">
   <g id="patch_2">
    <path d="M 26.925 273.312 
L 384.045 273.312 
L 384.045 7.2 
L 26.925 7.2 
z
" style="fill:#ffffff;"/>
   </g>
   <g id="patch_3">
    <path clip-path="url(#pba550dd153)" d="M 141.129126 253.638301 
C 153.603547 253.638301 165.568728 248.682161 174.389476 239.861413 
C 183.210224 231.040665 188.166364 219.075484 188.166364 206.601063 
C 188.166364 194.126641 183.210224 182.16146 174.389476 173.340713 
C 165.568728 164.519965 153.603547 159.563824 141.129126 159.563824 
C 128.654704 159.563824 116.689524 164.519965 107.868776 173.340713 
C 99.048028 182.16146 94.091887 194.126641 94.091887 206.601063 
C 94.091887 219.075484 99.048028 231.040665 107.868776 239.861413 
C 116.689524 248.682161 128.654704 253.638301 141.129126 253.638301 
z
" style="fill:none;stroke:#000000;stroke-linejoin:miter;"/>
   </g>
   <g id="patch_4">
    <path clip-path="url(#pba550dd153)" d="M 313.957109 269.11534 
C 326.431531 269.11534 338.396712 264.1592 347.21746 255.338452 
C 356.038208 246.517704 360.994348 234.552523 360.994348 222.078101 
C 360.994348 209.60368 356.038208 197.638499 347.21746 188.817751 
C 338.396712 179.997003 326.431531 175.040863 313.957109 175.040863 
C 301.482688 175.040863 289.517507 179.997003 280.696759 188.817751 
C 271.876011 197.638499 266.919871 209.60368 266.919871 222.078101 
C 266.919871 234.552523 271.876011 246.517704 280.696759 255.338452 
C 289.517507 264.1592 301.482688 269.11534 313.957109 269.11534 
z
" style="fill:none;stroke:#000000;stroke-linejoin:miter;"/>
   </g>
   <g id="patch_5">
    <path clip-path="url(#pba550dd153)" d="M 315.670676 426.505796 
C 328.145097 426.505796 340.110278 421.549656 348.931026 412.728908 
C 357.751774 403.90816 362.707914 391.942979 362.707914 379.468558 
C 362.707914 366.994136 357.751774 355.028956 348.931026 346.208208 
C 340.110278 337.38746 328.145097 332.431319 315.670676 332.431319 
C 303.196255 332.431319 291.231074 337.38746 282.410326 346.208208 
C 273.589578 355.028956 268.633438 366.994136 268.633438 379.468558 
C 268.633438 391.942979 273.589578 403.90816 282.410326 412.728908 
C 291.231074 421.549656 303.196255 426.505796 315.670676 426.505796 
z
" style="fill:none;stroke:#000000;stroke-linejoin:miter;"/>
   </g>
   <g id="patch_6">
    <path clip-path="url(#pba550dd153)" d="M 128.668021 458.89752 
C 141.142442 458.89752 153.107623 453.94138 161.928371 445.120632 
C 170.749119 436.299884 175.705259 424.334703 175.705259 411.860281 
C 175.705259 399.38586 170.749119 387.420679 161.928371 378.599931 
C 153.107623 369.779183 141.142442 364.823043 128.668021 364.823043 
C 116.193599 364.823043 104.228418 369.779183 95.40767 378.599931 
C 86.586922 387.420679 81.630782 399.38586 81.630782 411.860281 
C 81.630782 424.334703 86.586922 436.299884 95.40767 445.120632 
C 104.228418 453.94138 116.193599 458.89752 128.668021 458.89752 
z
" style="fill:none;stroke:#000000;stroke-linejoin:miter;"/>
   </g>
   <g id="patch_7">
    <path clip-path="url(#pba550dd153)" d="M 343.389721 139.755032 
C 355.864142 139.755032 367.829323 134.798892 376.650071 125.978144 
C 385.470819 117.157396 390.426959 105.192215 390.426959 92.717794 
C 390.426959 80.243373 385.470819 68.278192 376.650071 59.457444 
C 367.829323 50.636696 355.864142 45.680556 343.389721 45.680556 
C 330.915299 45.680556 318.950118 50.636696 310.12937 59.457444 
C 301.308622 68.278192 296.352482 80.243373 296.352482 92.717794 
C 296.352482 105.192215 301.308622 117.157396 310.12937 125.978144 
C 318.950118 134.798892 330.915299 139.755032 343.389721 139.755032 
z
" style="fill:none;stroke:#000000;stroke-linejoin:miter;"/>
   </g>
   <g id="patch_8">
    <path clip-path="url(#pba550dd153)" d="M 77.592165 350.885063 
C 90.066586 350.885063 102.031767 345.928923 110.852515 337.108175 
C 119.673263 328.287427 124.629403 316.322246 124.629403 303.847825 
C 124.629403 291.373403 119.673263 279.408222 110.852515 270.587474 
C 102.031767 261.766726 90.066586 256.810586 77.592165 256.810586 
C 65.117744 256.810586 53.152563 261.766726 44.331815 270.587474 
C 35.511067 279.408222 30.554927 291.373403 30.554927 303.847825 
C 30.554927 316.322246 35.511067 328.287427 44.331815 337.108175 
C 53.152563 345.928923 65.117744 350.885063 77.592165 350.885063 
z
" style="fill:none;stroke:#000000;stroke-linejoin:miter;"/>
   </g>
   <g id="patch_9">
    <path clip-path="url(#pba550dd153)" d="M 443.652416 133.628902 
C 456.126838 133.628902 468.092018 128.672762 476.912766 119.852014 
C 485.733514 111.031266 490.689654 99.066085 490.689654 86.591664 
C 490.689654 74.117243 485.733514 62.152062 476.912766 53.331314 
C 468.092018 44.510566 456.126838 39.554426 443.652416 39.554426 
C 431.177995 39.554426 419.212814 44.510566 410.392066 53.331314 
C 401.571318 62.152062 396.615178 74.117243 396.615178 86.591664 
C 396.615178 99.066085 401.571318 111.031266 410.392066 119.852014 
C 419.212814 128.672762 431.177995 133.628902 443.652416 133.628902 
z
" style="fill:none;stroke:#000000;stroke-linejoin:miter;"/>
   </g>
   <g id="patch_10">
    <path clip-path="url(#pba550dd153)" d="M 410.679783 434.794228 
C 423.154204 434.794228 435.119385 429.838088 443.940133 421.01734 
C 452.760881 412.196592 457.717021 400.231411 457.717021 387.756989 
C 457.717021 375.282568 452.760881 363.317387 443.940133 354.496639 
C 435.119385 345.675891 423.154204 340.719751 410.679783 340.719751 
C 398.205361 340.719751 386.24018 345.675891 377.419432 354.496639 
C 368.598684 363.317387 363.642544 375.282568 363.642544 387.756989 
C 363.642544 400.231411 368.598684 412.196592 377.419432 421.01734 
C 386.24018 429.838088 398.205361 434.794228 410.679783 434.794228 
z
" style="fill:none;stroke:#000000;stroke-linejoin:miter;"/>
   </g>
   <g id="patch_11">
    <path clip-path="url(#pba550dd153)" d="M 415.831771 337.93557 
C 428.306193 337.93557 440.271373 332.97943 449.092121 324.158682 
C 457.912869 315.337934 462.869009 303.372753 462.869009 290.898332 
C 462.869009 278.42391 457.912869 266.45873 449.092121 257.637982 
C 440.271373 248.817234 428.306193 243.861094 415.831771 243.861094 
C 403.35735 243.861094 391.392169 248.817234 382.571421 257.637982 
C 373.750673 266.45873 368.794533 278.42391 368.794533 290.898332 
C 368.794533 303.372753 373.750673 315.337934 382.571421 324.158682 
C 391.392169 332.97943 403.35735 337.93557 415.831771 337.93557 
z
" style="fill:none;stroke:#000000;stroke-linejoin:miter;"/>
   </g>
   <g id="patch_12">
    <path clip-path="url(#pba550dd153)" d="M 233.155178 219.062168 
C 245.629599 219.062168 257.59478 214.106028 266.415528 205.28528 
C 275.236276 196.464532 280.192416 184.499351 280.192416 172.02493 
C 280.192416 159.550508 275.236276 147.585327 266.415528 138.764579 
C 257.59478 129.943831 245.629599 124.987691 233.155178 124.987691 
C 220.680756 124.987691 208.715575 129.943831 199.894827 138.764579 
C 191.074079 147.585327 186.117939 159.550508 186.117939 172.02493 
C 186.117939 184.499351 191.074079 196.464532 199.894827 205.28528 
C 208.715575 214.106028 220.680756 219.062168 233.155178 219.062168 
z
" style="fill:none;stroke:#000000;stroke-linejoin:miter;"/>
   </g>
   <g id="patch_13">
    <path clip-path="url(#pba550dd153)" d="M 110.432624 155.242513 
C 122.907045 155.242513 134.872226 150.286373 143.692974 141.465625 
C 152.513722 132.644877 157.469862 120.679696 157.469862 108.205275 
C 157.469862 95.730854 152.513722 83.765673 143.692974 74.944925 
C 134.872226 66.124177 122.907045 61.168037 110.432624 61.168037 
C 97.958203 61.168037 85.993022 66.124177 77.172274 74.944925 
C 68.351526 83.765673 63.395386 95.730854 63.395386 108.205275 
C 63.395386 120.679696 68.351526 132.644877 77.172274 141.465625 
C 85.993022 150.286373 97.958203 155.242513 110.432624 155.242513 
z
" style="fill:none;stroke:#000000;stroke-linejoin:miter;"/>
   </g>
   <g id="patch_14">
    <path clip-path="url(#pba550dd153)" d="M 218.835631 328.922436 
C 231.310052 328.922436 243.275233 323.966295 252.095981 315.145547 
C 260.916729 306.324799 265.872869 294.359619 265.872869 281.885197 
C 265.872869 269.410776 260.916729 257.445595 252.095981 248.624847 
C 243.275233 239.804099 231.310052 234.847959 218.835631 234.847959 
C 206.36121 234.847959 194.396029 239.804099 185.575281 248.624847 
C 176.754533 257.445595 171.798393 269.410776 171.798393 281.885197 
C 171.798393 294.359619 176.754533 306.324799 185.575281 315.145547 
C 194.396029 323.966295 206.36121 328.922436 218.835631 328.922436 
z
" style="fill:none;stroke:#000000;stroke-linejoin:miter;"/>
   </g>
   <g id="patch_15">
    <path clip-path="url(#pba550dd153)" d="M 222.787135 459.778057 
C 235.261557 459.778057 247.226738 454.821917 256.047486 446.001169 
C 264.868233 437.180421 269.824374 425.21524 269.824374 412.740819 
C 269.824374 400.266397 264.868233 388.301216 256.047486 379.480468 
C 247.226738 370.65972 235.261557 365.70358 222.787135 365.70358 
C 210.312714 365.70358 198.347533 370.65972 189.526785 379.480468 
C 180.706037 388.301216 175.749897 400.266397 175.749897 412.740819 
C 175.749897 425.21524 180.706037 437.180421 189.526785 446.001169 
C 198.347533 454.821917 210.312714 459.778057 222.787135 459.778057 
z
" style="fill:none;stroke:#000000;stroke-linejoin:miter;"/>
   </g>
   <g id="patch_16">
    <path clip-path="url(#pba550dd153)" d="M 233.260682 120.854529 
C 245.735103 120.854529 257.700284 115.898389 266.521032 107.077641 
C 275.34178 98.256893 280.29792 86.291712 280.29792 73.817291 
C 280.29792 61.34287 275.34178 49.377689 266.521032 40.556941 
C 257.700284 31.736193 245.735103 26.780053 233.260682 26.780053 
C 220.786261 26.780053 208.82108 31.736193 200.000332 40.556941 
C 191.179584 49.377689 186.223444 61.34287 186.223444 73.817291 
C 186.223444 86.291712 191.179584 98.256893 200.000332 107.077641 
C 208.82108 115.898389 220.786261 120.854529 233.260682 120.854529 
z
" style="fill:none;stroke:#000000;stroke-linejoin:miter;"/>
   </g>
   <g id="patch_17">
    <path clip-path="url(#pba550dd153)" d="M 435.830594 239.217154 
C 448.305015 239.217154 460.270196 234.261014 469.090944 225.440266 
C 477.911692 216.619518 482.867832 204.654337 482.867832 192.179916 
C 482.867832 179.705494 477.911692 167.740314 469.090944 158.919566 
C 460.270196 150.098818 448.305015 145.142678 435.830594 145.142678 
C 423.356172 145.142678 411.390992 150.098818 402.570244 158.919566 
C 393.749496 167.740314 388.793356 179.705494 388.793356 192.179916 
C 388.793356 204.654337 393.749496 216.619518 402.570244 225.440266 
C 411.390992 234.261014 423.356172 239.217154 435.830594 239.217154 
z
" style="fill:none;stroke:#000000;stroke-linejoin:miter;"/>
   </g>
   <g id="matplotlib.axis_1">
    <g id="xtick_1">
     <g id="line2d_1">
      <defs>
       <path d="M 0 0 
L 0 3.5 
" id="mddc57cd7db" style="stroke:#000000;stroke-width:0.8;"/>
      </defs>
      <g>
       <use style="stroke:#000000;stroke-width:0.8;" x="69.774576" xlink:href="#mddc57cd7db" y="273.312"/>
      </g>
     </g>
     <g id="text_1">
      <!-- −40 -->
      <defs>
       <path d="M 10.59375 35.5 
L 73.1875 35.5 
L 73.1875 27.203125 
L 10.59375 27.203125 
z
" id="DejaVuSans-8722"/>
       <path d="M 37.796875 64.3125 
L 12.890625 25.390625 
L 37.796875 25.390625 
z
M 35.203125 72.90625 
L 47.609375 72.90625 
L 47.609375 25.390625 
L 58.015625 25.390625 
L 58.015625 17.1875 
L 47.609375 17.1875 
L 47.609375 0 
L 37.796875 0 
L 37.796875 17.1875 
L 4.890625 17.1875 
L 4.890625 26.703125 
z
" id="DejaVuSans-52"/>
       <path d="M 31.78125 66.40625 
Q 24.171875 66.40625 20.328125 58.90625 
Q 16.5 51.421875 16.5 36.375 
Q 16.5 21.390625 20.328125 13.890625 
Q 24.171875 6.390625 31.78125 6.390625 
Q 39.453125 6.390625 43.28125 13.890625 
Q 47.125 21.390625 47.125 36.375 
Q 47.125 51.421875 43.28125 58.90625 
Q 39.453125 66.40625 31.78125 66.40625 
z
M 31.78125 74.21875 
Q 44.046875 74.21875 50.515625 64.515625 
Q 56.984375 54.828125 56.984375 36.375 
Q 56.984375 17.96875 50.515625 8.265625 
Q 44.046875 -1.421875 31.78125 -1.421875 
Q 19.53125 -1.421875 13.0625 8.265625 
Q 6.59375 17.96875 6.59375 36.375 
Q 6.59375 54.828125 13.0625 64.515625 
Q 19.53125 74.21875 31.78125 74.21875 
z
" id="DejaVuSans-48"/>
      </defs>
      <g transform="translate(59.222232 287.910437)scale(0.1 -0.1)">
       <use xlink:href="#DejaVuSans-8722"/>
       <use x="83.789062" xlink:href="#DejaVuSans-52"/>
       <use x="147.412109" xlink:href="#DejaVuSans-48"/>
      </g>
     </g>
    </g>
    <g id="xtick_2">
     <g id="line2d_2">
      <g>
       <use style="stroke:#000000;stroke-width:0.8;" x="116.811814" xlink:href="#mddc57cd7db" y="273.312"/>
      </g>
     </g>
     <g id="text_2">
      <!-- −30 -->
      <defs>
       <path d="M 40.578125 39.3125 
Q 47.65625 37.796875 51.625 33 
Q 55.609375 28.21875 55.609375 21.1875 
Q 55.609375 10.40625 48.1875 4.484375 
Q 40.765625 -1.421875 27.09375 -1.421875 
Q 22.515625 -1.421875 17.65625 -0.515625 
Q 12.796875 0.390625 7.625 2.203125 
L 7.625 11.71875 
Q 11.71875 9.328125 16.59375 8.109375 
Q 21.484375 6.890625 26.8125 6.890625 
Q 36.078125 6.890625 40.9375 10.546875 
Q 45.796875 14.203125 45.796875 21.1875 
Q 45.796875 27.640625 41.28125 31.265625 
Q 36.765625 34.90625 28.71875 34.90625 
L 20.21875 34.90625 
L 20.21875 43.015625 
L 29.109375 43.015625 
Q 36.375 43.015625 40.234375 45.921875 
Q 44.09375 48.828125 44.09375 54.296875 
Q 44.09375 59.90625 40.109375 62.90625 
Q 36.140625 65.921875 28.71875 65.921875 
Q 24.65625 65.921875 20.015625 65.03125 
Q 15.375 64.15625 9.8125 62.3125 
L 9.8125 71.09375 
Q 15.4375 72.65625 20.34375 73.4375 
Q 25.25 74.21875 29.59375 74.21875 
Q 40.828125 74.21875 47.359375 69.109375 
Q 53.90625 64.015625 53.90625 55.328125 
Q 53.90625 49.265625 50.4375 45.09375 
Q 46.96875 40.921875 40.578125 39.3125 
z
" id="DejaVuSans-51"/>
      </defs>
      <g transform="translate(106.259471 287.910437)scale(0.1 -0.1)">
       <use xlink:href="#DejaVuSans-8722"/>
       <use x="83.789062" xlink:href="#DejaVuSans-51"/>
       <use x="147.412109" xlink:href="#DejaVuSans-48"/>
      </g>
     </g>
    </g>
    <g id="xtick_3">
     <g id="line2d_3">
      <g>
       <use style="stroke:#000000;stroke-width:0.8;" x="163.849053" xlink:href="#mddc57cd7db" y="273.312"/>
      </g>
     </g>
     <g id="text_3">
      <!-- −20 -->
      <defs>
       <path d="M 19.1875 8.296875 
L 53.609375 8.296875 
L 53.609375 0 
L 7.328125 0 
L 7.328125 8.296875 
Q 12.9375 14.109375 22.625 23.890625 
Q 32.328125 33.6875 34.8125 36.53125 
Q 39.546875 41.84375 41.421875 45.53125 
Q 43.3125 49.21875 43.3125 52.78125 
Q 43.3125 58.59375 39.234375 62.25 
Q 35.15625 65.921875 28.609375 65.921875 
Q 23.96875 65.921875 18.8125 64.3125 
Q 13.671875 62.703125 7.8125 59.421875 
L 7.8125 69.390625 
Q 13.765625 71.78125 18.9375 73 
Q 24.125 74.21875 28.421875 74.21875 
Q 39.75 74.21875 46.484375 68.546875 
Q 53.21875 62.890625 53.21875 53.421875 
Q 53.21875 48.921875 51.53125 44.890625 
Q 49.859375 40.875 45.40625 35.40625 
Q 44.1875 33.984375 37.640625 27.21875 
Q 31.109375 20.453125 19.1875 8.296875 
z
" id="DejaVuSans-50"/>
      </defs>
      <g transform="translate(153.296709 287.910437)scale(0.1 -0.1)">
       <use xlink:href="#DejaVuSans-8722"/>
       <use x="83.789062" xlink:href="#DejaVuSans-50"/>
       <use x="147.412109" xlink:href="#DejaVuSans-48"/>
      </g>
     </g>
    </g>
    <g id="xtick_4">
     <g id="line2d_4">
      <g>
       <use style="stroke:#000000;stroke-width:0.8;" x="210.886291" xlink:href="#mddc57cd7db" y="273.312"/>
      </g>
     </g>
     <g id="text_4">
      <!-- −10 -->
      <defs>
       <path d="M 12.40625 8.296875 
L 28.515625 8.296875 
L 28.515625 63.921875 
L 10.984375 60.40625 
L 10.984375 69.390625 
L 28.421875 72.90625 
L 38.28125 72.90625 
L 38.28125 8.296875 
L 54.390625 8.296875 
L 54.390625 0 
L 12.40625 0 
z
" id="DejaVuSans-49"/>
      </defs>
      <g transform="translate(200.333947 287.910437)scale(0.1 -0.1)">
       <use xlink:href="#DejaVuSans-8722"/>
       <use x="83.789062" xlink:href="#DejaVuSans-49"/>
       <use x="147.412109" xlink:href="#DejaVuSans-48"/>
      </g>
     </g>
    </g>
    <g id="xtick_5">
     <g id="line2d_5">
      <g>
       <use style="stroke:#000000;stroke-width:0.8;" x="257.923529" xlink:href="#mddc57cd7db" y="273.312"/>
      </g>
     </g>
     <g id="text_5">
      <!-- 0 -->
      <g transform="translate(254.742279 287.910437)scale(0.1 -0.1)">
       <use xlink:href="#DejaVuSans-48"/>
      </g>
     </g>
    </g>
    <g id="xtick_6">
     <g id="line2d_6">
      <g>
       <use style="stroke:#000000;stroke-width:0.8;" x="304.960767" xlink:href="#mddc57cd7db" y="273.312"/>
      </g>
     </g>
     <g id="text_6">
      <!-- 10 -->
      <g transform="translate(298.598267 287.910437)scale(0.1 -0.1)">
       <use xlink:href="#DejaVuSans-49"/>
       <use x="63.623047" xlink:href="#DejaVuSans-48"/>
      </g>
     </g>
    </g>
    <g id="xtick_7">
     <g id="line2d_7">
      <g>
       <use style="stroke:#000000;stroke-width:0.8;" x="351.998006" xlink:href="#mddc57cd7db" y="273.312"/>
      </g>
     </g>
     <g id="text_7">
      <!-- 20 -->
      <g transform="translate(345.635506 287.910437)scale(0.1 -0.1)">
       <use xlink:href="#DejaVuSans-50"/>
       <use x="63.623047" xlink:href="#DejaVuSans-48"/>
      </g>
     </g>
    </g>
   </g>
   <g id="matplotlib.axis_2">
    <g id="ytick_1">
     <g id="line2d_8">
      <defs>
       <path d="M 0 0 
L -3.5 0 
" id="mbc7a52f5a2" style="stroke:#000000;stroke-width:0.8;"/>
      </defs>
      <g>
       <use style="stroke:#000000;stroke-width:0.8;" x="26.925" xlink:href="#mbc7a52f5a2" y="261.216"/>
      </g>
     </g>
     <g id="text_8">
      <!-- 0 -->
      <g transform="translate(13.5625 265.015219)scale(0.1 -0.1)">
       <use xlink:href="#DejaVuSans-48"/>
      </g>
     </g>
    </g>
    <g id="ytick_2">
     <g id="line2d_9">
      <g>
       <use style="stroke:#000000;stroke-width:0.8;" x="26.925" xlink:href="#mbc7a52f5a2" y="214.178762"/>
      </g>
     </g>
     <g id="text_9">
      <!-- 10 -->
      <g transform="translate(7.2 217.97798)scale(0.1 -0.1)">
       <use xlink:href="#DejaVuSans-49"/>
       <use x="63.623047" xlink:href="#DejaVuSans-48"/>
      </g>
     </g>
    </g>
    <g id="ytick_3">
     <g id="line2d_10">
      <g>
       <use style="stroke:#000000;stroke-width:0.8;" x="26.925" xlink:href="#mbc7a52f5a2" y="167.141523"/>
      </g>
     </g>
     <g id="text_10">
      <!-- 20 -->
      <g transform="translate(7.2 170.940742)scale(0.1 -0.1)">
       <use xlink:href="#DejaVuSans-50"/>
       <use x="63.623047" xlink:href="#DejaVuSans-48"/>
      </g>
     </g>
    </g>
    <g id="ytick_4">
     <g id="line2d_11">
      <g>
       <use style="stroke:#000000;stroke-width:0.8;" x="26.925" xlink:href="#mbc7a52f5a2" y="120.104285"/>
      </g>
     </g>
     <g id="text_11">
      <!-- 30 -->
      <g transform="translate(7.2 123.903504)scale(0.1 -0.1)">
       <use xlink:href="#DejaVuSans-51"/>
       <use x="63.623047" xlink:href="#DejaVuSans-48"/>
      </g>
     </g>
    </g>
    <g id="ytick_5">
     <g id="line2d_12">
      <g>
       <use style="stroke:#000000;stroke-width:0.8;" x="26.925" xlink:href="#mbc7a52f5a2" y="73.067047"/>
      </g>
     </g>
     <g id="text_12">
      <!-- 40 -->
      <g transform="translate(7.2 76.866266)scale(0.1 -0.1)">
       <use xlink:href="#DejaVuSans-52"/>
       <use x="63.623047" xlink:href="#DejaVuSans-48"/>
      </g>
     </g>
    </g>
    <g id="ytick_6">
     <g id="line2d_13">
      <g>
       <use style="stroke:#000000;stroke-width:0.8;" x="26.925" xlink:href="#mbc7a52f5a2" y="26.029809"/>
      </g>
     </g>
     <g id="text_13">
      <!-- 50 -->
      <defs>
       <path d="M 10.796875 72.90625 
L 49.515625 72.90625 
L 49.515625 64.59375 
L 19.828125 64.59375 
L 19.828125 46.734375 
Q 21.96875 47.46875 24.109375 47.828125 
Q 26.265625 48.1875 28.421875 48.1875 
Q 40.625 48.1875 47.75 41.5 
Q 54.890625 34.8125 54.890625 23.390625 
Q 54.890625 11.625 47.5625 5.09375 
Q 40.234375 -1.421875 26.90625 -1.421875 
Q 22.3125 -1.421875 17.546875 -0.640625 
Q 12.796875 0.140625 7.71875 1.703125 
L 7.71875 11.625 
Q 12.109375 9.234375 16.796875 8.0625 
Q 21.484375 6.890625 26.703125 6.890625 
Q 35.15625 6.890625 40.078125 11.328125 
Q 45.015625 15.765625 45.015625 23.390625 
Q 45.015625 31 40.078125 35.4375 
Q 35.15625 39.890625 26.703125 39.890625 
Q 22.75 39.890625 18.8125 39.015625 
Q 14.890625 38.140625 10.796875 36.28125 
z
" id="DejaVuSans-53"/>
      </defs>
      <g transform="translate(7.2 29.829027)scale(0.1 -0.1)">
       <use xlink:href="#DejaVuSans-53"/>
       <use x="63.623047" xlink:href="#DejaVuSans-48"/>
      </g>
     </g>
    </g>
   </g>
   <g id="line2d_14">
    <path clip-path="url(#pba550dd153)" d="M 257.923529 261.216 
L 250.807698 232.839563 
L 275.821622 175.340453 
L 268.068238 172.350653 
L 255.264754 156.542571 
L 135.148378 19.296 
" style="fill:none;stroke:#1f77b4;stroke-linecap:square;stroke-width:1.5;"/>
    <defs>
     <path d="M -3 0 
L 3 0 
M 0 3 
L 0 -3 
" id="m2dddf4a1bc" style="stroke:#1f77b4;"/>
    </defs>
    <g clip-path="url(#pba550dd153)">
     <use style="fill:#1f77b4;stroke:#1f77b4;" x="257.923529" xlink:href="#m2dddf4a1bc" y="261.216"/>
     <use style="fill:#1f77b4;stroke:#1f77b4;" x="250.807698" xlink:href="#m2dddf4a1bc" y="232.839563"/>
     <use style="fill:#1f77b4;stroke:#1f77b4;" x="275.821622" xlink:href="#m2dddf4a1bc" y="175.340453"/>
     <use style="fill:#1f77b4;stroke:#1f77b4;" x="268.068238" xlink:href="#m2dddf4a1bc" y="172.350653"/>
     <use style="fill:#1f77b4;stroke:#1f77b4;" x="255.264754" xlink:href="#m2dddf4a1bc" y="156.542571"/>
     <use style="fill:#1f77b4;stroke:#1f77b4;" x="135.148378" xlink:href="#m2dddf4a1bc" y="19.296"/>
    </g>
   </g>
   <g id="line2d_15">
    <defs>
     <path d="M 0 3 
C 0.795609 3 1.55874 2.683901 2.12132 2.12132 
C 2.683901 1.55874 3 0.795609 3 0 
C 3 -0.795609 2.683901 -1.55874 2.12132 -2.12132 
C 1.55874 -2.683901 0.795609 -3 0 -3 
C -0.795609 -3 -1.55874 -2.683901 -2.12132 -2.12132 
C -2.683901 -1.55874 -3 -0.795609 -3 0 
C -3 0.795609 -2.683901 1.55874 -2.12132 2.12132 
C -1.55874 2.683901 -0.795609 3 0 3 
z
" id="mf356cf4a3f" style="stroke:#ff0000;"/>
    </defs>
    <g clip-path="url(#pba550dd153)">
     <use style="fill:#ff0000;stroke:#ff0000;" x="257.923529" xlink:href="#mf356cf4a3f" y="261.216"/>
    </g>
   </g>
   <g id="patch_18">
    <path d="M 26.925 273.312 
L 26.925 7.2 
" style="fill:none;stroke:#000000;stroke-linecap:square;stroke-linejoin:miter;stroke-width:0.8;"/>
   </g>
   <g id="patch_19">
    <path d="M 384.045 273.312 
L 384.045 7.2 
" style="fill:none;stroke:#000000;stroke-linecap:square;stroke-linejoin:miter;stroke-width:0.8;"/>
   </g>
   <g id="patch_20">
    <path d="M 26.925 273.312 
L 384.045 273.312 
" style="fill:none;stroke:#000000;stroke-linecap:square;stroke-linejoin:miter;stroke-width:0.8;"/>
   </g>
   <g id="patch_21">
    <path d="M 26.925 7.2 
L 384.045 7.2 
" style="fill:none;stroke:#000000;stroke-linecap:square;stroke-linejoin:miter;stroke-width:0.8;"/>
   </g>
  </g>
 </g>
 <defs>
  <clipPath id="pba550dd153">
   <rect height="266.112" width="357.12" x="26.925" y="7.2"/>
  </clipPath>
 </defs>
</svg>
